G04*
G04 #@! TF.GenerationSoftware,Altium Limited,Altium Designer,21.0.8 (223)*
G04*
G04 Layer_Color=16711935*
%FSLAX25Y25*%
%MOIN*%
G70*
G04*
G04 #@! TF.SameCoordinates,C61CC34B-293F-45D4-BFB8-299D7EEFD3E7*
G04*
G04*
G04 #@! TF.FilePolarity,Negative*
G04*
G01*
G75*
%ADD10C,0.00800*%
D10*
X53202Y76014D02*
G03*
X54500Y77500I-202J1486D01*
G01*
D02*
G03*
X56000Y76000I1500J0D01*
G01*
D02*
G03*
X54500Y74500I0J-1500D01*
G01*
D02*
G03*
X53000Y76000I-1500J0D01*
G01*
X41202Y76014D02*
G03*
X42500Y77500I-202J1486D01*
G01*
D02*
G03*
X44000Y76000I1500J0D01*
G01*
D02*
G03*
X42500Y74500I0J-1500D01*
G01*
D02*
G03*
X41000Y76000I-1500J0D01*
G01*
X29202Y76014D02*
G03*
X30500Y77500I-202J1486D01*
G01*
D02*
G03*
X32000Y76000I1500J0D01*
G01*
D02*
G03*
X30500Y74500I0J-1500D01*
G01*
D02*
G03*
X29000Y76000I-1500J0D01*
G01*
X17202Y76014D02*
G03*
X18500Y77500I-202J1486D01*
G01*
D02*
G03*
X20000Y76000I1500J0D01*
G01*
D02*
G03*
X18500Y74500I0J-1500D01*
G01*
D02*
G03*
X17000Y76000I-1500J0D01*
G01*
X130202Y76014D02*
G03*
X131500Y77500I-202J1486D01*
G01*
D02*
G03*
X133000Y76000I1500J0D01*
G01*
D02*
G03*
X131500Y74500I0J-1500D01*
G01*
D02*
G03*
X130000Y76000I-1500J0D01*
G01*
X118202Y76014D02*
G03*
X119500Y77500I-202J1486D01*
G01*
D02*
G03*
X121000Y76000I1500J0D01*
G01*
D02*
G03*
X119500Y74500I0J-1500D01*
G01*
D02*
G03*
X118000Y76000I-1500J0D01*
G01*
X106202Y76014D02*
G03*
X107500Y77500I-202J1486D01*
G01*
D02*
G03*
X109000Y76000I1500J0D01*
G01*
D02*
G03*
X107500Y74500I0J-1500D01*
G01*
D02*
G03*
X106000Y76000I-1500J0D01*
G01*
X94202Y76014D02*
G03*
X95500Y77500I-202J1486D01*
G01*
D02*
G03*
X97000Y76000I1500J0D01*
G01*
D02*
G03*
X95500Y74500I0J-1500D01*
G01*
D02*
G03*
X94000Y76000I-1500J0D01*
G01*
X206202Y76014D02*
G03*
X207500Y77500I-202J1486D01*
G01*
D02*
G03*
X209000Y76000I1500J0D01*
G01*
D02*
G03*
X207500Y74500I0J-1500D01*
G01*
D02*
G03*
X206000Y76000I-1500J0D01*
G01*
X194202Y76014D02*
G03*
X195500Y77500I-202J1486D01*
G01*
D02*
G03*
X197000Y76000I1500J0D01*
G01*
D02*
G03*
X195500Y74500I0J-1500D01*
G01*
D02*
G03*
X194000Y76000I-1500J0D01*
G01*
X182202Y76014D02*
G03*
X183500Y77500I-202J1486D01*
G01*
D02*
G03*
X185000Y76000I1500J0D01*
G01*
D02*
G03*
X183500Y74500I0J-1500D01*
G01*
D02*
G03*
X182000Y76000I-1500J0D01*
G01*
X170202Y76014D02*
G03*
X171500Y77500I-202J1486D01*
G01*
D02*
G03*
X173000Y76000I1500J0D01*
G01*
D02*
G03*
X171500Y74500I0J-1500D01*
G01*
D02*
G03*
X170000Y76000I-1500J0D01*
G01*
X246500Y74500D02*
G03*
X245000Y76000I-1500J0D01*
G01*
X248000D02*
G03*
X246500Y74500I0J-1500D01*
G01*
Y77500D02*
G03*
X248000Y76000I1500J0D01*
G01*
X245202Y76014D02*
G03*
X246500Y77500I-202J1486D01*
G01*
X258500Y74500D02*
G03*
X257000Y76000I-1500J0D01*
G01*
X260000D02*
G03*
X258500Y74500I0J-1500D01*
G01*
Y77500D02*
G03*
X260000Y76000I1500J0D01*
G01*
X257202Y76014D02*
G03*
X258500Y77500I-202J1486D01*
G01*
X270500Y74500D02*
G03*
X269000Y76000I-1500J0D01*
G01*
X272000D02*
G03*
X270500Y74500I0J-1500D01*
G01*
Y77500D02*
G03*
X272000Y76000I1500J0D01*
G01*
X269202Y76014D02*
G03*
X270500Y77500I-202J1486D01*
G01*
X282500Y74500D02*
G03*
X281000Y76000I-1500J0D01*
G01*
X284000D02*
G03*
X282500Y74500I0J-1500D01*
G01*
Y77500D02*
G03*
X284000Y76000I1500J0D01*
G01*
X281202Y76014D02*
G03*
X282500Y77500I-202J1486D01*
G01*
X53202Y152014D02*
G03*
X54500Y153500I-202J1486D01*
G01*
D02*
G03*
X56000Y152000I1500J0D01*
G01*
D02*
G03*
X54500Y150500I0J-1500D01*
G01*
D02*
G03*
X53000Y152000I-1500J0D01*
G01*
X41202Y152014D02*
G03*
X42500Y153500I-202J1486D01*
G01*
D02*
G03*
X44000Y152000I1500J0D01*
G01*
D02*
G03*
X42500Y150500I0J-1500D01*
G01*
D02*
G03*
X41000Y152000I-1500J0D01*
G01*
X29202Y152014D02*
G03*
X30500Y153500I-202J1486D01*
G01*
D02*
G03*
X32000Y152000I1500J0D01*
G01*
D02*
G03*
X30500Y150500I0J-1500D01*
G01*
D02*
G03*
X29000Y152000I-1500J0D01*
G01*
X17202Y152014D02*
G03*
X18500Y153500I-202J1486D01*
G01*
D02*
G03*
X20000Y152000I1500J0D01*
G01*
D02*
G03*
X18500Y150500I0J-1500D01*
G01*
D02*
G03*
X17000Y152000I-1500J0D01*
G01*
X130202Y152014D02*
G03*
X131500Y153500I-202J1486D01*
G01*
D02*
G03*
X133000Y152000I1500J0D01*
G01*
D02*
G03*
X131500Y150500I0J-1500D01*
G01*
D02*
G03*
X130000Y152000I-1500J0D01*
G01*
X118202Y152014D02*
G03*
X119500Y153500I-202J1486D01*
G01*
D02*
G03*
X121000Y152000I1500J0D01*
G01*
D02*
G03*
X119500Y150500I0J-1500D01*
G01*
D02*
G03*
X118000Y152000I-1500J0D01*
G01*
X106202Y152014D02*
G03*
X107500Y153500I-202J1486D01*
G01*
D02*
G03*
X109000Y152000I1500J0D01*
G01*
D02*
G03*
X107500Y150500I0J-1500D01*
G01*
D02*
G03*
X106000Y152000I-1500J0D01*
G01*
X94202Y152014D02*
G03*
X95500Y153500I-202J1486D01*
G01*
D02*
G03*
X97000Y152000I1500J0D01*
G01*
D02*
G03*
X95500Y150500I0J-1500D01*
G01*
D02*
G03*
X94000Y152000I-1500J0D01*
G01*
X206202Y152014D02*
G03*
X207500Y153500I-202J1486D01*
G01*
D02*
G03*
X209000Y152000I1500J0D01*
G01*
D02*
G03*
X207500Y150500I0J-1500D01*
G01*
D02*
G03*
X206000Y152000I-1500J0D01*
G01*
X194202Y152014D02*
G03*
X195500Y153500I-202J1486D01*
G01*
D02*
G03*
X197000Y152000I1500J0D01*
G01*
D02*
G03*
X195500Y150500I0J-1500D01*
G01*
D02*
G03*
X194000Y152000I-1500J0D01*
G01*
X182202Y152014D02*
G03*
X183500Y153500I-202J1486D01*
G01*
D02*
G03*
X185000Y152000I1500J0D01*
G01*
D02*
G03*
X183500Y150500I0J-1500D01*
G01*
D02*
G03*
X182000Y152000I-1500J0D01*
G01*
X170202Y152014D02*
G03*
X171500Y153500I-202J1486D01*
G01*
D02*
G03*
X173000Y152000I1500J0D01*
G01*
D02*
G03*
X171500Y150500I0J-1500D01*
G01*
D02*
G03*
X170000Y152000I-1500J0D01*
G01*
X246500Y150500D02*
G03*
X245000Y152000I-1500J0D01*
G01*
X248000D02*
G03*
X246500Y150500I0J-1500D01*
G01*
Y153500D02*
G03*
X248000Y152000I1500J0D01*
G01*
X245202Y152014D02*
G03*
X246500Y153500I-202J1486D01*
G01*
X258500Y150500D02*
G03*
X257000Y152000I-1500J0D01*
G01*
X260000D02*
G03*
X258500Y150500I0J-1500D01*
G01*
Y153500D02*
G03*
X260000Y152000I1500J0D01*
G01*
X257202Y152014D02*
G03*
X258500Y153500I-202J1486D01*
G01*
X270500Y150500D02*
G03*
X269000Y152000I-1500J0D01*
G01*
X272000D02*
G03*
X270500Y150500I0J-1500D01*
G01*
Y153500D02*
G03*
X272000Y152000I1500J0D01*
G01*
X269202Y152014D02*
G03*
X270500Y153500I-202J1486D01*
G01*
X282500Y150500D02*
G03*
X281000Y152000I-1500J0D01*
G01*
X284000D02*
G03*
X282500Y150500I0J-1500D01*
G01*
Y153500D02*
G03*
X284000Y152000I1500J0D01*
G01*
X281202Y152014D02*
G03*
X282500Y153500I-202J1486D01*
G01*
X281202Y228014D02*
G03*
X282500Y229500I-202J1486D01*
G01*
D02*
G03*
X284000Y228000I1500J0D01*
G01*
D02*
G03*
X282500Y226500I0J-1500D01*
G01*
D02*
G03*
X281000Y228000I-1500J0D01*
G01*
X269202Y228014D02*
G03*
X270500Y229500I-202J1486D01*
G01*
D02*
G03*
X272000Y228000I1500J0D01*
G01*
D02*
G03*
X270500Y226500I0J-1500D01*
G01*
D02*
G03*
X269000Y228000I-1500J0D01*
G01*
X257202Y228014D02*
G03*
X258500Y229500I-202J1486D01*
G01*
D02*
G03*
X260000Y228000I1500J0D01*
G01*
D02*
G03*
X258500Y226500I0J-1500D01*
G01*
D02*
G03*
X257000Y228000I-1500J0D01*
G01*
X245202Y228014D02*
G03*
X246500Y229500I-202J1486D01*
G01*
D02*
G03*
X248000Y228000I1500J0D01*
G01*
D02*
G03*
X246500Y226500I0J-1500D01*
G01*
D02*
G03*
X245000Y228000I-1500J0D01*
G01*
X171500Y226500D02*
G03*
X170000Y228000I-1500J0D01*
G01*
X173000D02*
G03*
X171500Y226500I0J-1500D01*
G01*
Y229500D02*
G03*
X173000Y228000I1500J0D01*
G01*
X170202Y228014D02*
G03*
X171500Y229500I-202J1486D01*
G01*
X183500Y226500D02*
G03*
X182000Y228000I-1500J0D01*
G01*
X185000D02*
G03*
X183500Y226500I0J-1500D01*
G01*
Y229500D02*
G03*
X185000Y228000I1500J0D01*
G01*
X182202Y228014D02*
G03*
X183500Y229500I-202J1486D01*
G01*
X195500Y226500D02*
G03*
X194000Y228000I-1500J0D01*
G01*
X197000D02*
G03*
X195500Y226500I0J-1500D01*
G01*
Y229500D02*
G03*
X197000Y228000I1500J0D01*
G01*
X194202Y228014D02*
G03*
X195500Y229500I-202J1486D01*
G01*
X207500Y226500D02*
G03*
X206000Y228000I-1500J0D01*
G01*
X209000D02*
G03*
X207500Y226500I0J-1500D01*
G01*
Y229500D02*
G03*
X209000Y228000I1500J0D01*
G01*
X206202Y228014D02*
G03*
X207500Y229500I-202J1486D01*
G01*
X95500Y226500D02*
G03*
X94000Y228000I-1500J0D01*
G01*
X97000D02*
G03*
X95500Y226500I0J-1500D01*
G01*
Y229500D02*
G03*
X97000Y228000I1500J0D01*
G01*
X94202Y228014D02*
G03*
X95500Y229500I-202J1486D01*
G01*
X107500Y226500D02*
G03*
X106000Y228000I-1500J0D01*
G01*
X109000D02*
G03*
X107500Y226500I0J-1500D01*
G01*
Y229500D02*
G03*
X109000Y228000I1500J0D01*
G01*
X106202Y228014D02*
G03*
X107500Y229500I-202J1486D01*
G01*
X119500Y226500D02*
G03*
X118000Y228000I-1500J0D01*
G01*
X121000D02*
G03*
X119500Y226500I0J-1500D01*
G01*
Y229500D02*
G03*
X121000Y228000I1500J0D01*
G01*
X118202Y228014D02*
G03*
X119500Y229500I-202J1486D01*
G01*
X131500Y226500D02*
G03*
X130000Y228000I-1500J0D01*
G01*
X133000D02*
G03*
X131500Y226500I0J-1500D01*
G01*
Y229500D02*
G03*
X133000Y228000I1500J0D01*
G01*
X130202Y228014D02*
G03*
X131500Y229500I-202J1486D01*
G01*
X18500Y226500D02*
G03*
X17000Y228000I-1500J0D01*
G01*
X20000D02*
G03*
X18500Y226500I0J-1500D01*
G01*
Y229500D02*
G03*
X20000Y228000I1500J0D01*
G01*
X17202Y228014D02*
G03*
X18500Y229500I-202J1486D01*
G01*
X30500Y226500D02*
G03*
X29000Y228000I-1500J0D01*
G01*
X32000D02*
G03*
X30500Y226500I0J-1500D01*
G01*
Y229500D02*
G03*
X32000Y228000I1500J0D01*
G01*
X29202Y228014D02*
G03*
X30500Y229500I-202J1486D01*
G01*
X42500Y226500D02*
G03*
X41000Y228000I-1500J0D01*
G01*
X44000D02*
G03*
X42500Y226500I0J-1500D01*
G01*
Y229500D02*
G03*
X44000Y228000I1500J0D01*
G01*
X41202Y228014D02*
G03*
X42500Y229500I-202J1486D01*
G01*
X54500Y226500D02*
G03*
X53000Y228000I-1500J0D01*
G01*
X56000D02*
G03*
X54500Y226500I0J-1500D01*
G01*
Y229500D02*
G03*
X56000Y228000I1500J0D01*
G01*
X53202Y228014D02*
G03*
X54500Y229500I-202J1486D01*
G01*
X75986Y281202D02*
G03*
X74500Y282500I-1486J-202D01*
G01*
D02*
G03*
X76000Y284000I0J1500D01*
G01*
D02*
G03*
X77500Y282500I1500J0D01*
G01*
D02*
G03*
X76000Y281000I0J-1500D01*
G01*
X75986Y269202D02*
G03*
X74500Y270500I-1486J-202D01*
G01*
D02*
G03*
X76000Y272000I0J1500D01*
G01*
D02*
G03*
X77500Y270500I1500J0D01*
G01*
D02*
G03*
X76000Y269000I0J-1500D01*
G01*
X75986Y257202D02*
G03*
X74500Y258500I-1486J-202D01*
G01*
D02*
G03*
X76000Y260000I0J1500D01*
G01*
D02*
G03*
X77500Y258500I1500J0D01*
G01*
D02*
G03*
X76000Y257000I0J-1500D01*
G01*
X75986Y245202D02*
G03*
X74500Y246500I-1486J-202D01*
G01*
D02*
G03*
X76000Y248000I0J1500D01*
G01*
D02*
G03*
X77500Y246500I1500J0D01*
G01*
D02*
G03*
X76000Y245000I0J-1500D01*
G01*
X77500Y171500D02*
G03*
X76000Y170000I0J-1500D01*
G01*
Y173000D02*
G03*
X77500Y171500I1500J0D01*
G01*
X74500D02*
G03*
X76000Y173000I0J1500D01*
G01*
X75986Y170202D02*
G03*
X74500Y171500I-1486J-202D01*
G01*
X77500Y183500D02*
G03*
X76000Y182000I0J-1500D01*
G01*
Y185000D02*
G03*
X77500Y183500I1500J0D01*
G01*
X74500D02*
G03*
X76000Y185000I0J1500D01*
G01*
X75986Y182202D02*
G03*
X74500Y183500I-1486J-202D01*
G01*
X77500Y195500D02*
G03*
X76000Y194000I0J-1500D01*
G01*
Y197000D02*
G03*
X77500Y195500I1500J0D01*
G01*
X74500D02*
G03*
X76000Y197000I0J1500D01*
G01*
X75986Y194202D02*
G03*
X74500Y195500I-1486J-202D01*
G01*
X77500Y207500D02*
G03*
X76000Y206000I0J-1500D01*
G01*
Y209000D02*
G03*
X77500Y207500I1500J0D01*
G01*
X74500D02*
G03*
X76000Y209000I0J1500D01*
G01*
X75986Y206202D02*
G03*
X74500Y207500I-1486J-202D01*
G01*
X77500Y95500D02*
G03*
X76000Y94000I0J-1500D01*
G01*
Y97000D02*
G03*
X77500Y95500I1500J0D01*
G01*
X74500D02*
G03*
X76000Y97000I0J1500D01*
G01*
X75986Y94202D02*
G03*
X74500Y95500I-1486J-202D01*
G01*
X77500Y107500D02*
G03*
X76000Y106000I0J-1500D01*
G01*
Y109000D02*
G03*
X77500Y107500I1500J0D01*
G01*
X74500D02*
G03*
X76000Y109000I0J1500D01*
G01*
X75986Y106202D02*
G03*
X74500Y107500I-1486J-202D01*
G01*
X77500Y119500D02*
G03*
X76000Y118000I0J-1500D01*
G01*
Y121000D02*
G03*
X77500Y119500I1500J0D01*
G01*
X74500D02*
G03*
X76000Y121000I0J1500D01*
G01*
X75986Y118202D02*
G03*
X74500Y119500I-1486J-202D01*
G01*
X77500Y131500D02*
G03*
X76000Y130000I0J-1500D01*
G01*
Y133000D02*
G03*
X77500Y131500I1500J0D01*
G01*
X74500D02*
G03*
X76000Y133000I0J1500D01*
G01*
X75986Y130202D02*
G03*
X74500Y131500I-1486J-202D01*
G01*
X77500Y18500D02*
G03*
X76000Y17000I0J-1500D01*
G01*
Y20000D02*
G03*
X77500Y18500I1500J0D01*
G01*
X74500D02*
G03*
X76000Y20000I0J1500D01*
G01*
X75986Y17202D02*
G03*
X74500Y18500I-1486J-202D01*
G01*
X77500Y30500D02*
G03*
X76000Y29000I0J-1500D01*
G01*
Y32000D02*
G03*
X77500Y30500I1500J0D01*
G01*
X74500D02*
G03*
X76000Y32000I0J1500D01*
G01*
X75986Y29202D02*
G03*
X74500Y30500I-1486J-202D01*
G01*
X77500Y42500D02*
G03*
X76000Y41000I0J-1500D01*
G01*
Y44000D02*
G03*
X77500Y42500I1500J0D01*
G01*
X74500D02*
G03*
X76000Y44000I0J1500D01*
G01*
X75986Y41202D02*
G03*
X74500Y42500I-1486J-202D01*
G01*
X77500Y54500D02*
G03*
X76000Y53000I0J-1500D01*
G01*
Y56000D02*
G03*
X77500Y54500I1500J0D01*
G01*
X74500D02*
G03*
X76000Y56000I0J1500D01*
G01*
X75986Y53202D02*
G03*
X74500Y54500I-1486J-202D01*
G01*
X76486Y226702D02*
G03*
X75000Y228000I-1486J-202D01*
G01*
D02*
G03*
X76500Y229500I0J1500D01*
G01*
X76500D02*
G03*
X78000Y228000I1500J0D01*
G01*
D02*
G03*
X76500Y226500I0J-1500D01*
G01*
X76486Y150702D02*
G03*
X75000Y152000I-1486J-202D01*
G01*
D02*
G03*
X76500Y153500I0J1500D01*
G01*
D02*
G03*
X78000Y152000I1500J0D01*
G01*
D02*
G03*
X76500Y150500I0J-1500D01*
G01*
X76486Y74702D02*
G03*
X75000Y76000I-1486J-202D01*
G01*
D02*
G03*
X76500Y77500I0J1500D01*
G01*
X76500D02*
G03*
X78000Y76000I1500J0D01*
G01*
D02*
G03*
X76500Y74500I0J-1500D01*
G01*
X151986Y280202D02*
G03*
X150500Y281500I-1486J-202D01*
G01*
D02*
G03*
X152000Y283000I0J1500D01*
G01*
D02*
G03*
X153500Y281500I1500J0D01*
G01*
D02*
G03*
X152000Y280000I0J-1500D01*
G01*
X151986Y268202D02*
G03*
X150500Y269500I-1486J-202D01*
G01*
D02*
G03*
X152000Y271000I0J1500D01*
G01*
D02*
G03*
X153500Y269500I1500J0D01*
G01*
D02*
G03*
X152000Y268000I0J-1500D01*
G01*
X151986Y256202D02*
G03*
X150500Y257500I-1486J-202D01*
G01*
D02*
G03*
X152000Y259000I0J1500D01*
G01*
D02*
G03*
X153500Y257500I1500J0D01*
G01*
D02*
G03*
X152000Y256000I0J-1500D01*
G01*
X151986Y244202D02*
G03*
X150500Y245500I-1486J-202D01*
G01*
D02*
G03*
X152000Y247000I0J1500D01*
G01*
D02*
G03*
X153500Y245500I1500J0D01*
G01*
D02*
G03*
X152000Y244000I0J-1500D01*
G01*
X153500Y170500D02*
G03*
X152000Y169000I0J-1500D01*
G01*
Y172000D02*
G03*
X153500Y170500I1500J0D01*
G01*
X150500D02*
G03*
X152000Y172000I0J1500D01*
G01*
X151986Y169202D02*
G03*
X150500Y170500I-1486J-202D01*
G01*
X153500Y182500D02*
G03*
X152000Y181000I0J-1500D01*
G01*
Y184000D02*
G03*
X153500Y182500I1500J0D01*
G01*
X150500D02*
G03*
X152000Y184000I0J1500D01*
G01*
X151986Y181202D02*
G03*
X150500Y182500I-1486J-202D01*
G01*
X153500Y194500D02*
G03*
X152000Y193000I0J-1500D01*
G01*
Y196000D02*
G03*
X153500Y194500I1500J0D01*
G01*
X150500D02*
G03*
X152000Y196000I0J1500D01*
G01*
X151986Y193202D02*
G03*
X150500Y194500I-1486J-202D01*
G01*
X153500Y206500D02*
G03*
X152000Y205000I0J-1500D01*
G01*
Y208000D02*
G03*
X153500Y206500I1500J0D01*
G01*
X150500D02*
G03*
X152000Y208000I0J1500D01*
G01*
X151986Y205202D02*
G03*
X150500Y206500I-1486J-202D01*
G01*
X153500Y94500D02*
G03*
X152000Y93000I0J-1500D01*
G01*
Y96000D02*
G03*
X153500Y94500I1500J0D01*
G01*
X150500D02*
G03*
X152000Y96000I0J1500D01*
G01*
X151986Y93202D02*
G03*
X150500Y94500I-1486J-202D01*
G01*
X153500Y106500D02*
G03*
X152000Y105000I0J-1500D01*
G01*
Y108000D02*
G03*
X153500Y106500I1500J0D01*
G01*
X150500D02*
G03*
X152000Y108000I0J1500D01*
G01*
X151986Y105202D02*
G03*
X150500Y106500I-1486J-202D01*
G01*
X153500Y118500D02*
G03*
X152000Y117000I0J-1500D01*
G01*
Y120000D02*
G03*
X153500Y118500I1500J0D01*
G01*
X150500D02*
G03*
X152000Y120000I0J1500D01*
G01*
X151986Y117202D02*
G03*
X150500Y118500I-1486J-202D01*
G01*
X153500Y130500D02*
G03*
X152000Y129000I0J-1500D01*
G01*
Y132000D02*
G03*
X153500Y130500I1500J0D01*
G01*
X150500D02*
G03*
X152000Y132000I0J1500D01*
G01*
X151986Y129202D02*
G03*
X150500Y130500I-1486J-202D01*
G01*
X153500Y17500D02*
G03*
X152000Y16000I0J-1500D01*
G01*
Y19000D02*
G03*
X153500Y17500I1500J0D01*
G01*
X150500D02*
G03*
X152000Y19000I0J1500D01*
G01*
X151986Y16202D02*
G03*
X150500Y17500I-1486J-202D01*
G01*
X153500Y29500D02*
G03*
X152000Y28000I0J-1500D01*
G01*
Y31000D02*
G03*
X153500Y29500I1500J0D01*
G01*
X150500D02*
G03*
X152000Y31000I0J1500D01*
G01*
X151986Y28202D02*
G03*
X150500Y29500I-1486J-202D01*
G01*
X153500Y41500D02*
G03*
X152000Y40000I0J-1500D01*
G01*
Y43000D02*
G03*
X153500Y41500I1500J0D01*
G01*
X150500D02*
G03*
X152000Y43000I0J1500D01*
G01*
X151986Y40202D02*
G03*
X150500Y41500I-1486J-202D01*
G01*
X153500Y53500D02*
G03*
X152000Y52000I0J-1500D01*
G01*
Y55000D02*
G03*
X153500Y53500I1500J0D01*
G01*
X150500D02*
G03*
X152000Y55000I0J1500D01*
G01*
X151986Y52202D02*
G03*
X150500Y53500I-1486J-202D01*
G01*
X152486Y225702D02*
G03*
X151000Y227000I-1486J-202D01*
G01*
D02*
G03*
X152500Y228500I0J1500D01*
G01*
X152500D02*
G03*
X154000Y227000I1500J0D01*
G01*
D02*
G03*
X152500Y225500I0J-1500D01*
G01*
X152486Y149702D02*
G03*
X151000Y151000I-1486J-202D01*
G01*
D02*
G03*
X152500Y152500I0J1500D01*
G01*
D02*
G03*
X154000Y151000I1500J0D01*
G01*
D02*
G03*
X152500Y149500I0J-1500D01*
G01*
X152486Y73702D02*
G03*
X151000Y75000I-1486J-202D01*
G01*
D02*
G03*
X152500Y76500I0J1500D01*
G01*
X152500D02*
G03*
X154000Y75000I1500J0D01*
G01*
D02*
G03*
X152500Y73500I0J-1500D01*
G01*
X226986Y281202D02*
G03*
X225500Y282500I-1486J-202D01*
G01*
D02*
G03*
X227000Y284000I0J1500D01*
G01*
D02*
G03*
X228500Y282500I1500J0D01*
G01*
D02*
G03*
X227000Y281000I0J-1500D01*
G01*
X226986Y269202D02*
G03*
X225500Y270500I-1486J-202D01*
G01*
D02*
G03*
X227000Y272000I0J1500D01*
G01*
D02*
G03*
X228500Y270500I1500J0D01*
G01*
D02*
G03*
X227000Y269000I0J-1500D01*
G01*
X226986Y257202D02*
G03*
X225500Y258500I-1486J-202D01*
G01*
D02*
G03*
X227000Y260000I0J1500D01*
G01*
D02*
G03*
X228500Y258500I1500J0D01*
G01*
D02*
G03*
X227000Y257000I0J-1500D01*
G01*
X226986Y245202D02*
G03*
X225500Y246500I-1486J-202D01*
G01*
D02*
G03*
X227000Y248000I0J1500D01*
G01*
D02*
G03*
X228500Y246500I1500J0D01*
G01*
D02*
G03*
X227000Y245000I0J-1500D01*
G01*
X228500Y171500D02*
G03*
X227000Y170000I0J-1500D01*
G01*
Y173000D02*
G03*
X228500Y171500I1500J0D01*
G01*
X225500D02*
G03*
X227000Y173000I0J1500D01*
G01*
X226986Y170202D02*
G03*
X225500Y171500I-1486J-202D01*
G01*
X228500Y183500D02*
G03*
X227000Y182000I0J-1500D01*
G01*
Y185000D02*
G03*
X228500Y183500I1500J0D01*
G01*
X225500D02*
G03*
X227000Y185000I0J1500D01*
G01*
X226986Y182202D02*
G03*
X225500Y183500I-1486J-202D01*
G01*
X228500Y195500D02*
G03*
X227000Y194000I0J-1500D01*
G01*
Y197000D02*
G03*
X228500Y195500I1500J0D01*
G01*
X225500D02*
G03*
X227000Y197000I0J1500D01*
G01*
X226986Y194202D02*
G03*
X225500Y195500I-1486J-202D01*
G01*
X228500Y207500D02*
G03*
X227000Y206000I0J-1500D01*
G01*
Y209000D02*
G03*
X228500Y207500I1500J0D01*
G01*
X225500D02*
G03*
X227000Y209000I0J1500D01*
G01*
X226986Y206202D02*
G03*
X225500Y207500I-1486J-202D01*
G01*
X228500Y95500D02*
G03*
X227000Y94000I0J-1500D01*
G01*
Y97000D02*
G03*
X228500Y95500I1500J0D01*
G01*
X225500D02*
G03*
X227000Y97000I0J1500D01*
G01*
X226986Y94202D02*
G03*
X225500Y95500I-1486J-202D01*
G01*
X228500Y107500D02*
G03*
X227000Y106000I0J-1500D01*
G01*
Y109000D02*
G03*
X228500Y107500I1500J0D01*
G01*
X225500D02*
G03*
X227000Y109000I0J1500D01*
G01*
X226986Y106202D02*
G03*
X225500Y107500I-1486J-202D01*
G01*
X228500Y119500D02*
G03*
X227000Y118000I0J-1500D01*
G01*
Y121000D02*
G03*
X228500Y119500I1500J0D01*
G01*
X225500D02*
G03*
X227000Y121000I0J1500D01*
G01*
X226986Y118202D02*
G03*
X225500Y119500I-1486J-202D01*
G01*
X228500Y131500D02*
G03*
X227000Y130000I0J-1500D01*
G01*
Y133000D02*
G03*
X228500Y131500I1500J0D01*
G01*
X225500D02*
G03*
X227000Y133000I0J1500D01*
G01*
X226986Y130202D02*
G03*
X225500Y131500I-1486J-202D01*
G01*
X228500Y18500D02*
G03*
X227000Y17000I0J-1500D01*
G01*
Y20000D02*
G03*
X228500Y18500I1500J0D01*
G01*
X225500D02*
G03*
X227000Y20000I0J1500D01*
G01*
X226986Y17202D02*
G03*
X225500Y18500I-1486J-202D01*
G01*
X228500Y30500D02*
G03*
X227000Y29000I0J-1500D01*
G01*
Y32000D02*
G03*
X228500Y30500I1500J0D01*
G01*
X225500D02*
G03*
X227000Y32000I0J1500D01*
G01*
X226986Y29202D02*
G03*
X225500Y30500I-1486J-202D01*
G01*
X228500Y42500D02*
G03*
X227000Y41000I0J-1500D01*
G01*
Y44000D02*
G03*
X228500Y42500I1500J0D01*
G01*
X225500D02*
G03*
X227000Y44000I0J1500D01*
G01*
X226986Y41202D02*
G03*
X225500Y42500I-1486J-202D01*
G01*
X228500Y54500D02*
G03*
X227000Y53000I0J-1500D01*
G01*
Y56000D02*
G03*
X228500Y54500I1500J0D01*
G01*
X225500D02*
G03*
X227000Y56000I0J1500D01*
G01*
X226986Y53202D02*
G03*
X225500Y54500I-1486J-202D01*
G01*
X227486Y226702D02*
G03*
X226000Y228000I-1486J-202D01*
G01*
D02*
G03*
X227500Y229500I0J1500D01*
G01*
X227500D02*
G03*
X229000Y228000I1500J0D01*
G01*
D02*
G03*
X227500Y226500I0J-1500D01*
G01*
X227486Y150702D02*
G03*
X226000Y152000I-1486J-202D01*
G01*
D02*
G03*
X227500Y153500I0J1500D01*
G01*
D02*
G03*
X229000Y152000I1500J0D01*
G01*
D02*
G03*
X227500Y150500I0J-1500D01*
G01*
X227486Y74702D02*
G03*
X226000Y76000I-1486J-202D01*
G01*
D02*
G03*
X227500Y77500I0J1500D01*
G01*
X227500D02*
G03*
X229000Y76000I1500J0D01*
G01*
D02*
G03*
X227500Y74500I0J-1500D01*
G01*
X7986Y280202D02*
G03*
X6500Y281500I-1486J-202D01*
G01*
D02*
G03*
X8000Y283000I0J1500D01*
G01*
D02*
G03*
X9500Y281500I1500J0D01*
G01*
D02*
G03*
X8000Y280000I0J-1500D01*
G01*
X7986Y268202D02*
G03*
X6500Y269500I-1486J-202D01*
G01*
D02*
G03*
X8000Y271000I0J1500D01*
G01*
D02*
G03*
X9500Y269500I1500J0D01*
G01*
D02*
G03*
X8000Y268000I0J-1500D01*
G01*
X7986Y256202D02*
G03*
X6500Y257500I-1486J-202D01*
G01*
D02*
G03*
X8000Y259000I0J1500D01*
G01*
D02*
G03*
X9500Y257500I1500J0D01*
G01*
D02*
G03*
X8000Y256000I0J-1500D01*
G01*
X7986Y244202D02*
G03*
X6500Y245500I-1486J-202D01*
G01*
D02*
G03*
X8000Y247000I0J1500D01*
G01*
D02*
G03*
X9500Y245500I1500J0D01*
G01*
D02*
G03*
X8000Y244000I0J-1500D01*
G01*
X9500Y170500D02*
G03*
X8000Y169000I0J-1500D01*
G01*
Y172000D02*
G03*
X9500Y170500I1500J0D01*
G01*
X6500D02*
G03*
X8000Y172000I0J1500D01*
G01*
X7986Y169202D02*
G03*
X6500Y170500I-1486J-202D01*
G01*
X9500Y182500D02*
G03*
X8000Y181000I0J-1500D01*
G01*
Y184000D02*
G03*
X9500Y182500I1500J0D01*
G01*
X6500D02*
G03*
X8000Y184000I0J1500D01*
G01*
X7986Y181202D02*
G03*
X6500Y182500I-1486J-202D01*
G01*
X9500Y194500D02*
G03*
X8000Y193000I0J-1500D01*
G01*
Y196000D02*
G03*
X9500Y194500I1500J0D01*
G01*
X6500D02*
G03*
X8000Y196000I0J1500D01*
G01*
X7986Y193202D02*
G03*
X6500Y194500I-1486J-202D01*
G01*
X9500Y206500D02*
G03*
X8000Y205000I0J-1500D01*
G01*
Y208000D02*
G03*
X9500Y206500I1500J0D01*
G01*
X6500D02*
G03*
X8000Y208000I0J1500D01*
G01*
X7986Y205202D02*
G03*
X6500Y206500I-1486J-202D01*
G01*
X9500Y94500D02*
G03*
X8000Y93000I0J-1500D01*
G01*
Y96000D02*
G03*
X9500Y94500I1500J0D01*
G01*
X6500D02*
G03*
X8000Y96000I0J1500D01*
G01*
X7986Y93202D02*
G03*
X6500Y94500I-1486J-202D01*
G01*
X9500Y106500D02*
G03*
X8000Y105000I0J-1500D01*
G01*
Y108000D02*
G03*
X9500Y106500I1500J0D01*
G01*
X6500D02*
G03*
X8000Y108000I0J1500D01*
G01*
X7986Y105202D02*
G03*
X6500Y106500I-1486J-202D01*
G01*
X9500Y118500D02*
G03*
X8000Y117000I0J-1500D01*
G01*
Y120000D02*
G03*
X9500Y118500I1500J0D01*
G01*
X6500D02*
G03*
X8000Y120000I0J1500D01*
G01*
X7986Y117202D02*
G03*
X6500Y118500I-1486J-202D01*
G01*
X9500Y130500D02*
G03*
X8000Y129000I0J-1500D01*
G01*
Y132000D02*
G03*
X9500Y130500I1500J0D01*
G01*
X6500D02*
G03*
X8000Y132000I0J1500D01*
G01*
X7986Y129202D02*
G03*
X6500Y130500I-1486J-202D01*
G01*
X9500Y17500D02*
G03*
X8000Y16000I0J-1500D01*
G01*
Y19000D02*
G03*
X9500Y17500I1500J0D01*
G01*
X6500D02*
G03*
X8000Y19000I0J1500D01*
G01*
X7986Y16202D02*
G03*
X6500Y17500I-1486J-202D01*
G01*
X9500Y29500D02*
G03*
X8000Y28000I0J-1500D01*
G01*
Y31000D02*
G03*
X9500Y29500I1500J0D01*
G01*
X6500D02*
G03*
X8000Y31000I0J1500D01*
G01*
X7986Y28202D02*
G03*
X6500Y29500I-1486J-202D01*
G01*
X9500Y41500D02*
G03*
X8000Y40000I0J-1500D01*
G01*
Y43000D02*
G03*
X9500Y41500I1500J0D01*
G01*
X6500D02*
G03*
X8000Y43000I0J1500D01*
G01*
X7986Y40202D02*
G03*
X6500Y41500I-1486J-202D01*
G01*
X9500Y53500D02*
G03*
X8000Y52000I0J-1500D01*
G01*
Y55000D02*
G03*
X9500Y53500I1500J0D01*
G01*
X6500D02*
G03*
X8000Y55000I0J1500D01*
G01*
X7986Y52202D02*
G03*
X6500Y53500I-1486J-202D01*
G01*
X8486Y225702D02*
G03*
X7000Y227000I-1486J-202D01*
G01*
D02*
G03*
X8500Y228500I0J1500D01*
G01*
X8500D02*
G03*
X10000Y227000I1500J0D01*
G01*
D02*
G03*
X8500Y225500I0J-1500D01*
G01*
X8486Y149702D02*
G03*
X7000Y151000I-1486J-202D01*
G01*
D02*
G03*
X8500Y152500I0J1500D01*
G01*
D02*
G03*
X10000Y151000I1500J0D01*
G01*
D02*
G03*
X8500Y149500I0J-1500D01*
G01*
X8486Y73702D02*
G03*
X7000Y75000I-1486J-202D01*
G01*
D02*
G03*
X8500Y76500I0J1500D01*
G01*
X8500D02*
G03*
X10000Y75000I1500J0D01*
G01*
D02*
G03*
X8500Y73500I0J-1500D01*
G01*
X67986Y280202D02*
G03*
X66500Y281500I-1486J-202D01*
G01*
D02*
G03*
X68000Y283000I0J1500D01*
G01*
D02*
G03*
X69500Y281500I1500J0D01*
G01*
D02*
G03*
X68000Y280000I0J-1500D01*
G01*
X67986Y268202D02*
G03*
X66500Y269500I-1486J-202D01*
G01*
D02*
G03*
X68000Y271000I0J1500D01*
G01*
D02*
G03*
X69500Y269500I1500J0D01*
G01*
D02*
G03*
X68000Y268000I0J-1500D01*
G01*
X67986Y256202D02*
G03*
X66500Y257500I-1486J-202D01*
G01*
D02*
G03*
X68000Y259000I0J1500D01*
G01*
D02*
G03*
X69500Y257500I1500J0D01*
G01*
D02*
G03*
X68000Y256000I0J-1500D01*
G01*
X67986Y244202D02*
G03*
X66500Y245500I-1486J-202D01*
G01*
D02*
G03*
X68000Y247000I0J1500D01*
G01*
D02*
G03*
X69500Y245500I1500J0D01*
G01*
D02*
G03*
X68000Y244000I0J-1500D01*
G01*
X69500Y170500D02*
G03*
X68000Y169000I0J-1500D01*
G01*
Y172000D02*
G03*
X69500Y170500I1500J0D01*
G01*
X66500D02*
G03*
X68000Y172000I0J1500D01*
G01*
X67986Y169202D02*
G03*
X66500Y170500I-1486J-202D01*
G01*
X69500Y182500D02*
G03*
X68000Y181000I0J-1500D01*
G01*
Y184000D02*
G03*
X69500Y182500I1500J0D01*
G01*
X66500D02*
G03*
X68000Y184000I0J1500D01*
G01*
X67986Y181202D02*
G03*
X66500Y182500I-1486J-202D01*
G01*
X69500Y194500D02*
G03*
X68000Y193000I0J-1500D01*
G01*
Y196000D02*
G03*
X69500Y194500I1500J0D01*
G01*
X66500D02*
G03*
X68000Y196000I0J1500D01*
G01*
X67986Y193202D02*
G03*
X66500Y194500I-1486J-202D01*
G01*
X69500Y206500D02*
G03*
X68000Y205000I0J-1500D01*
G01*
Y208000D02*
G03*
X69500Y206500I1500J0D01*
G01*
X66500D02*
G03*
X68000Y208000I0J1500D01*
G01*
X67986Y205202D02*
G03*
X66500Y206500I-1486J-202D01*
G01*
X69500Y94500D02*
G03*
X68000Y93000I0J-1500D01*
G01*
Y96000D02*
G03*
X69500Y94500I1500J0D01*
G01*
X66500D02*
G03*
X68000Y96000I0J1500D01*
G01*
X67986Y93202D02*
G03*
X66500Y94500I-1486J-202D01*
G01*
X69500Y106500D02*
G03*
X68000Y105000I0J-1500D01*
G01*
Y108000D02*
G03*
X69500Y106500I1500J0D01*
G01*
X66500D02*
G03*
X68000Y108000I0J1500D01*
G01*
X67986Y105202D02*
G03*
X66500Y106500I-1486J-202D01*
G01*
X69500Y118500D02*
G03*
X68000Y117000I0J-1500D01*
G01*
Y120000D02*
G03*
X69500Y118500I1500J0D01*
G01*
X66500D02*
G03*
X68000Y120000I0J1500D01*
G01*
X67986Y117202D02*
G03*
X66500Y118500I-1486J-202D01*
G01*
X69500Y130500D02*
G03*
X68000Y129000I0J-1500D01*
G01*
Y132000D02*
G03*
X69500Y130500I1500J0D01*
G01*
X66500D02*
G03*
X68000Y132000I0J1500D01*
G01*
X67986Y129202D02*
G03*
X66500Y130500I-1486J-202D01*
G01*
X69500Y17500D02*
G03*
X68000Y16000I0J-1500D01*
G01*
Y19000D02*
G03*
X69500Y17500I1500J0D01*
G01*
X66500D02*
G03*
X68000Y19000I0J1500D01*
G01*
X67986Y16202D02*
G03*
X66500Y17500I-1486J-202D01*
G01*
X69500Y29500D02*
G03*
X68000Y28000I0J-1500D01*
G01*
Y31000D02*
G03*
X69500Y29500I1500J0D01*
G01*
X66500D02*
G03*
X68000Y31000I0J1500D01*
G01*
X67986Y28202D02*
G03*
X66500Y29500I-1486J-202D01*
G01*
X69500Y41500D02*
G03*
X68000Y40000I0J-1500D01*
G01*
Y43000D02*
G03*
X69500Y41500I1500J0D01*
G01*
X66500D02*
G03*
X68000Y43000I0J1500D01*
G01*
X67986Y40202D02*
G03*
X66500Y41500I-1486J-202D01*
G01*
X69500Y53500D02*
G03*
X68000Y52000I0J-1500D01*
G01*
Y55000D02*
G03*
X69500Y53500I1500J0D01*
G01*
X66500D02*
G03*
X68000Y55000I0J1500D01*
G01*
X67986Y52202D02*
G03*
X66500Y53500I-1486J-202D01*
G01*
X68486Y225702D02*
G03*
X67000Y227000I-1486J-202D01*
G01*
D02*
G03*
X68500Y228500I0J1500D01*
G01*
X68500D02*
G03*
X70000Y227000I1500J0D01*
G01*
D02*
G03*
X68500Y225500I0J-1500D01*
G01*
X68486Y149702D02*
G03*
X67000Y151000I-1486J-202D01*
G01*
D02*
G03*
X68500Y152500I0J1500D01*
G01*
D02*
G03*
X70000Y151000I1500J0D01*
G01*
D02*
G03*
X68500Y149500I0J-1500D01*
G01*
X68486Y73702D02*
G03*
X67000Y75000I-1486J-202D01*
G01*
D02*
G03*
X68500Y76500I0J1500D01*
G01*
X68500D02*
G03*
X70000Y75000I1500J0D01*
G01*
D02*
G03*
X68500Y73500I0J-1500D01*
G01*
X83986Y280202D02*
G03*
X82500Y281500I-1486J-202D01*
G01*
D02*
G03*
X84000Y283000I0J1500D01*
G01*
D02*
G03*
X85500Y281500I1500J0D01*
G01*
D02*
G03*
X84000Y280000I0J-1500D01*
G01*
X83986Y268202D02*
G03*
X82500Y269500I-1486J-202D01*
G01*
D02*
G03*
X84000Y271000I0J1500D01*
G01*
D02*
G03*
X85500Y269500I1500J0D01*
G01*
D02*
G03*
X84000Y268000I0J-1500D01*
G01*
X83986Y256202D02*
G03*
X82500Y257500I-1486J-202D01*
G01*
D02*
G03*
X84000Y259000I0J1500D01*
G01*
D02*
G03*
X85500Y257500I1500J0D01*
G01*
D02*
G03*
X84000Y256000I0J-1500D01*
G01*
X83986Y244202D02*
G03*
X82500Y245500I-1486J-202D01*
G01*
D02*
G03*
X84000Y247000I0J1500D01*
G01*
D02*
G03*
X85500Y245500I1500J0D01*
G01*
D02*
G03*
X84000Y244000I0J-1500D01*
G01*
X85500Y170500D02*
G03*
X84000Y169000I0J-1500D01*
G01*
Y172000D02*
G03*
X85500Y170500I1500J0D01*
G01*
X82500D02*
G03*
X84000Y172000I0J1500D01*
G01*
X83986Y169202D02*
G03*
X82500Y170500I-1486J-202D01*
G01*
X85500Y182500D02*
G03*
X84000Y181000I0J-1500D01*
G01*
Y184000D02*
G03*
X85500Y182500I1500J0D01*
G01*
X82500D02*
G03*
X84000Y184000I0J1500D01*
G01*
X83986Y181202D02*
G03*
X82500Y182500I-1486J-202D01*
G01*
X85500Y194500D02*
G03*
X84000Y193000I0J-1500D01*
G01*
Y196000D02*
G03*
X85500Y194500I1500J0D01*
G01*
X82500D02*
G03*
X84000Y196000I0J1500D01*
G01*
X83986Y193202D02*
G03*
X82500Y194500I-1486J-202D01*
G01*
X85500Y206500D02*
G03*
X84000Y205000I0J-1500D01*
G01*
Y208000D02*
G03*
X85500Y206500I1500J0D01*
G01*
X82500D02*
G03*
X84000Y208000I0J1500D01*
G01*
X83986Y205202D02*
G03*
X82500Y206500I-1486J-202D01*
G01*
X85500Y94500D02*
G03*
X84000Y93000I0J-1500D01*
G01*
Y96000D02*
G03*
X85500Y94500I1500J0D01*
G01*
X82500D02*
G03*
X84000Y96000I0J1500D01*
G01*
X83986Y93202D02*
G03*
X82500Y94500I-1486J-202D01*
G01*
X85500Y106500D02*
G03*
X84000Y105000I0J-1500D01*
G01*
Y108000D02*
G03*
X85500Y106500I1500J0D01*
G01*
X82500D02*
G03*
X84000Y108000I0J1500D01*
G01*
X83986Y105202D02*
G03*
X82500Y106500I-1486J-202D01*
G01*
X85500Y118500D02*
G03*
X84000Y117000I0J-1500D01*
G01*
Y120000D02*
G03*
X85500Y118500I1500J0D01*
G01*
X82500D02*
G03*
X84000Y120000I0J1500D01*
G01*
X83986Y117202D02*
G03*
X82500Y118500I-1486J-202D01*
G01*
X85500Y130500D02*
G03*
X84000Y129000I0J-1500D01*
G01*
Y132000D02*
G03*
X85500Y130500I1500J0D01*
G01*
X82500D02*
G03*
X84000Y132000I0J1500D01*
G01*
X83986Y129202D02*
G03*
X82500Y130500I-1486J-202D01*
G01*
X85500Y17500D02*
G03*
X84000Y16000I0J-1500D01*
G01*
Y19000D02*
G03*
X85500Y17500I1500J0D01*
G01*
X82500D02*
G03*
X84000Y19000I0J1500D01*
G01*
X83986Y16202D02*
G03*
X82500Y17500I-1486J-202D01*
G01*
X85500Y29500D02*
G03*
X84000Y28000I0J-1500D01*
G01*
Y31000D02*
G03*
X85500Y29500I1500J0D01*
G01*
X82500D02*
G03*
X84000Y31000I0J1500D01*
G01*
X83986Y28202D02*
G03*
X82500Y29500I-1486J-202D01*
G01*
X85500Y41500D02*
G03*
X84000Y40000I0J-1500D01*
G01*
Y43000D02*
G03*
X85500Y41500I1500J0D01*
G01*
X82500D02*
G03*
X84000Y43000I0J1500D01*
G01*
X83986Y40202D02*
G03*
X82500Y41500I-1486J-202D01*
G01*
X85500Y53500D02*
G03*
X84000Y52000I0J-1500D01*
G01*
Y55000D02*
G03*
X85500Y53500I1500J0D01*
G01*
X82500D02*
G03*
X84000Y55000I0J1500D01*
G01*
X83986Y52202D02*
G03*
X82500Y53500I-1486J-202D01*
G01*
X84486Y225702D02*
G03*
X83000Y227000I-1486J-202D01*
G01*
D02*
G03*
X84500Y228500I0J1500D01*
G01*
X84500D02*
G03*
X86000Y227000I1500J0D01*
G01*
D02*
G03*
X84500Y225500I0J-1500D01*
G01*
X84486Y149702D02*
G03*
X83000Y151000I-1486J-202D01*
G01*
D02*
G03*
X84500Y152500I0J1500D01*
G01*
D02*
G03*
X86000Y151000I1500J0D01*
G01*
D02*
G03*
X84500Y149500I0J-1500D01*
G01*
X84486Y73702D02*
G03*
X83000Y75000I-1486J-202D01*
G01*
D02*
G03*
X84500Y76500I0J1500D01*
G01*
X84500D02*
G03*
X86000Y75000I1500J0D01*
G01*
D02*
G03*
X84500Y73500I0J-1500D01*
G01*
X143986Y280202D02*
G03*
X142500Y281500I-1486J-202D01*
G01*
D02*
G03*
X144000Y283000I0J1500D01*
G01*
D02*
G03*
X145500Y281500I1500J0D01*
G01*
D02*
G03*
X144000Y280000I0J-1500D01*
G01*
X143986Y268202D02*
G03*
X142500Y269500I-1486J-202D01*
G01*
D02*
G03*
X144000Y271000I0J1500D01*
G01*
D02*
G03*
X145500Y269500I1500J0D01*
G01*
D02*
G03*
X144000Y268000I0J-1500D01*
G01*
X143986Y256202D02*
G03*
X142500Y257500I-1486J-202D01*
G01*
D02*
G03*
X144000Y259000I0J1500D01*
G01*
D02*
G03*
X145500Y257500I1500J0D01*
G01*
D02*
G03*
X144000Y256000I0J-1500D01*
G01*
X143986Y244202D02*
G03*
X142500Y245500I-1486J-202D01*
G01*
D02*
G03*
X144000Y247000I0J1500D01*
G01*
D02*
G03*
X145500Y245500I1500J0D01*
G01*
D02*
G03*
X144000Y244000I0J-1500D01*
G01*
X145500Y170500D02*
G03*
X144000Y169000I0J-1500D01*
G01*
Y172000D02*
G03*
X145500Y170500I1500J0D01*
G01*
X142500D02*
G03*
X144000Y172000I0J1500D01*
G01*
X143986Y169202D02*
G03*
X142500Y170500I-1486J-202D01*
G01*
X145500Y182500D02*
G03*
X144000Y181000I0J-1500D01*
G01*
Y184000D02*
G03*
X145500Y182500I1500J0D01*
G01*
X142500D02*
G03*
X144000Y184000I0J1500D01*
G01*
X143986Y181202D02*
G03*
X142500Y182500I-1486J-202D01*
G01*
X145500Y194500D02*
G03*
X144000Y193000I0J-1500D01*
G01*
Y196000D02*
G03*
X145500Y194500I1500J0D01*
G01*
X142500D02*
G03*
X144000Y196000I0J1500D01*
G01*
X143986Y193202D02*
G03*
X142500Y194500I-1486J-202D01*
G01*
X145500Y206500D02*
G03*
X144000Y205000I0J-1500D01*
G01*
Y208000D02*
G03*
X145500Y206500I1500J0D01*
G01*
X142500D02*
G03*
X144000Y208000I0J1500D01*
G01*
X143986Y205202D02*
G03*
X142500Y206500I-1486J-202D01*
G01*
X145500Y94500D02*
G03*
X144000Y93000I0J-1500D01*
G01*
Y96000D02*
G03*
X145500Y94500I1500J0D01*
G01*
X142500D02*
G03*
X144000Y96000I0J1500D01*
G01*
X143986Y93202D02*
G03*
X142500Y94500I-1486J-202D01*
G01*
X145500Y106500D02*
G03*
X144000Y105000I0J-1500D01*
G01*
Y108000D02*
G03*
X145500Y106500I1500J0D01*
G01*
X142500D02*
G03*
X144000Y108000I0J1500D01*
G01*
X143986Y105202D02*
G03*
X142500Y106500I-1486J-202D01*
G01*
X145500Y118500D02*
G03*
X144000Y117000I0J-1500D01*
G01*
Y120000D02*
G03*
X145500Y118500I1500J0D01*
G01*
X142500D02*
G03*
X144000Y120000I0J1500D01*
G01*
X143986Y117202D02*
G03*
X142500Y118500I-1486J-202D01*
G01*
X145500Y130500D02*
G03*
X144000Y129000I0J-1500D01*
G01*
Y132000D02*
G03*
X145500Y130500I1500J0D01*
G01*
X142500D02*
G03*
X144000Y132000I0J1500D01*
G01*
X143986Y129202D02*
G03*
X142500Y130500I-1486J-202D01*
G01*
X145500Y17500D02*
G03*
X144000Y16000I0J-1500D01*
G01*
Y19000D02*
G03*
X145500Y17500I1500J0D01*
G01*
X142500D02*
G03*
X144000Y19000I0J1500D01*
G01*
X143986Y16202D02*
G03*
X142500Y17500I-1486J-202D01*
G01*
X145500Y29500D02*
G03*
X144000Y28000I0J-1500D01*
G01*
Y31000D02*
G03*
X145500Y29500I1500J0D01*
G01*
X142500D02*
G03*
X144000Y31000I0J1500D01*
G01*
X143986Y28202D02*
G03*
X142500Y29500I-1486J-202D01*
G01*
X145500Y41500D02*
G03*
X144000Y40000I0J-1500D01*
G01*
Y43000D02*
G03*
X145500Y41500I1500J0D01*
G01*
X142500D02*
G03*
X144000Y43000I0J1500D01*
G01*
X143986Y40202D02*
G03*
X142500Y41500I-1486J-202D01*
G01*
X145500Y53500D02*
G03*
X144000Y52000I0J-1500D01*
G01*
Y55000D02*
G03*
X145500Y53500I1500J0D01*
G01*
X142500D02*
G03*
X144000Y55000I0J1500D01*
G01*
X143986Y52202D02*
G03*
X142500Y53500I-1486J-202D01*
G01*
X144486Y225702D02*
G03*
X143000Y227000I-1486J-202D01*
G01*
D02*
G03*
X144500Y228500I0J1500D01*
G01*
X144500D02*
G03*
X146000Y227000I1500J0D01*
G01*
D02*
G03*
X144500Y225500I0J-1500D01*
G01*
X144486Y149702D02*
G03*
X143000Y151000I-1486J-202D01*
G01*
D02*
G03*
X144500Y152500I0J1500D01*
G01*
D02*
G03*
X146000Y151000I1500J0D01*
G01*
D02*
G03*
X144500Y149500I0J-1500D01*
G01*
X144486Y73702D02*
G03*
X143000Y75000I-1486J-202D01*
G01*
D02*
G03*
X144500Y76500I0J1500D01*
G01*
X144500D02*
G03*
X146000Y75000I1500J0D01*
G01*
D02*
G03*
X144500Y73500I0J-1500D01*
G01*
X159986Y280202D02*
G03*
X158500Y281500I-1486J-202D01*
G01*
D02*
G03*
X160000Y283000I0J1500D01*
G01*
D02*
G03*
X161500Y281500I1500J0D01*
G01*
D02*
G03*
X160000Y280000I0J-1500D01*
G01*
X159986Y268202D02*
G03*
X158500Y269500I-1486J-202D01*
G01*
D02*
G03*
X160000Y271000I0J1500D01*
G01*
D02*
G03*
X161500Y269500I1500J0D01*
G01*
D02*
G03*
X160000Y268000I0J-1500D01*
G01*
X159986Y256202D02*
G03*
X158500Y257500I-1486J-202D01*
G01*
D02*
G03*
X160000Y259000I0J1500D01*
G01*
D02*
G03*
X161500Y257500I1500J0D01*
G01*
D02*
G03*
X160000Y256000I0J-1500D01*
G01*
X159986Y244202D02*
G03*
X158500Y245500I-1486J-202D01*
G01*
D02*
G03*
X160000Y247000I0J1500D01*
G01*
D02*
G03*
X161500Y245500I1500J0D01*
G01*
D02*
G03*
X160000Y244000I0J-1500D01*
G01*
X161500Y170500D02*
G03*
X160000Y169000I0J-1500D01*
G01*
Y172000D02*
G03*
X161500Y170500I1500J0D01*
G01*
X158500D02*
G03*
X160000Y172000I0J1500D01*
G01*
X159986Y169202D02*
G03*
X158500Y170500I-1486J-202D01*
G01*
X161500Y182500D02*
G03*
X160000Y181000I0J-1500D01*
G01*
Y184000D02*
G03*
X161500Y182500I1500J0D01*
G01*
X158500D02*
G03*
X160000Y184000I0J1500D01*
G01*
X159986Y181202D02*
G03*
X158500Y182500I-1486J-202D01*
G01*
X161500Y194500D02*
G03*
X160000Y193000I0J-1500D01*
G01*
Y196000D02*
G03*
X161500Y194500I1500J0D01*
G01*
X158500D02*
G03*
X160000Y196000I0J1500D01*
G01*
X159986Y193202D02*
G03*
X158500Y194500I-1486J-202D01*
G01*
X161500Y206500D02*
G03*
X160000Y205000I0J-1500D01*
G01*
Y208000D02*
G03*
X161500Y206500I1500J0D01*
G01*
X158500D02*
G03*
X160000Y208000I0J1500D01*
G01*
X159986Y205202D02*
G03*
X158500Y206500I-1486J-202D01*
G01*
X161500Y94500D02*
G03*
X160000Y93000I0J-1500D01*
G01*
Y96000D02*
G03*
X161500Y94500I1500J0D01*
G01*
X158500D02*
G03*
X160000Y96000I0J1500D01*
G01*
X159986Y93202D02*
G03*
X158500Y94500I-1486J-202D01*
G01*
X161500Y106500D02*
G03*
X160000Y105000I0J-1500D01*
G01*
Y108000D02*
G03*
X161500Y106500I1500J0D01*
G01*
X158500D02*
G03*
X160000Y108000I0J1500D01*
G01*
X159986Y105202D02*
G03*
X158500Y106500I-1486J-202D01*
G01*
X161500Y118500D02*
G03*
X160000Y117000I0J-1500D01*
G01*
Y120000D02*
G03*
X161500Y118500I1500J0D01*
G01*
X158500D02*
G03*
X160000Y120000I0J1500D01*
G01*
X159986Y117202D02*
G03*
X158500Y118500I-1486J-202D01*
G01*
X161500Y130500D02*
G03*
X160000Y129000I0J-1500D01*
G01*
Y132000D02*
G03*
X161500Y130500I1500J0D01*
G01*
X158500D02*
G03*
X160000Y132000I0J1500D01*
G01*
X159986Y129202D02*
G03*
X158500Y130500I-1486J-202D01*
G01*
X161500Y17500D02*
G03*
X160000Y16000I0J-1500D01*
G01*
Y19000D02*
G03*
X161500Y17500I1500J0D01*
G01*
X158500D02*
G03*
X160000Y19000I0J1500D01*
G01*
X159986Y16202D02*
G03*
X158500Y17500I-1486J-202D01*
G01*
X161500Y29500D02*
G03*
X160000Y28000I0J-1500D01*
G01*
Y31000D02*
G03*
X161500Y29500I1500J0D01*
G01*
X158500D02*
G03*
X160000Y31000I0J1500D01*
G01*
X159986Y28202D02*
G03*
X158500Y29500I-1486J-202D01*
G01*
X161500Y41500D02*
G03*
X160000Y40000I0J-1500D01*
G01*
Y43000D02*
G03*
X161500Y41500I1500J0D01*
G01*
X158500D02*
G03*
X160000Y43000I0J1500D01*
G01*
X159986Y40202D02*
G03*
X158500Y41500I-1486J-202D01*
G01*
X161500Y53500D02*
G03*
X160000Y52000I0J-1500D01*
G01*
Y55000D02*
G03*
X161500Y53500I1500J0D01*
G01*
X158500D02*
G03*
X160000Y55000I0J1500D01*
G01*
X159986Y52202D02*
G03*
X158500Y53500I-1486J-202D01*
G01*
X160486Y225702D02*
G03*
X159000Y227000I-1486J-202D01*
G01*
D02*
G03*
X160500Y228500I0J1500D01*
G01*
X160500D02*
G03*
X162000Y227000I1500J0D01*
G01*
D02*
G03*
X160500Y225500I0J-1500D01*
G01*
X160486Y149702D02*
G03*
X159000Y151000I-1486J-202D01*
G01*
D02*
G03*
X160500Y152500I0J1500D01*
G01*
D02*
G03*
X162000Y151000I1500J0D01*
G01*
D02*
G03*
X160500Y149500I0J-1500D01*
G01*
X160486Y73702D02*
G03*
X159000Y75000I-1486J-202D01*
G01*
D02*
G03*
X160500Y76500I0J1500D01*
G01*
X160500D02*
G03*
X162000Y75000I1500J0D01*
G01*
D02*
G03*
X160500Y73500I0J-1500D01*
G01*
X219986Y280202D02*
G03*
X218500Y281500I-1486J-202D01*
G01*
D02*
G03*
X220000Y283000I0J1500D01*
G01*
D02*
G03*
X221500Y281500I1500J0D01*
G01*
D02*
G03*
X220000Y280000I0J-1500D01*
G01*
X219986Y268202D02*
G03*
X218500Y269500I-1486J-202D01*
G01*
D02*
G03*
X220000Y271000I0J1500D01*
G01*
D02*
G03*
X221500Y269500I1500J0D01*
G01*
D02*
G03*
X220000Y268000I0J-1500D01*
G01*
X219986Y256202D02*
G03*
X218500Y257500I-1486J-202D01*
G01*
D02*
G03*
X220000Y259000I0J1500D01*
G01*
D02*
G03*
X221500Y257500I1500J0D01*
G01*
D02*
G03*
X220000Y256000I0J-1500D01*
G01*
X219986Y244202D02*
G03*
X218500Y245500I-1486J-202D01*
G01*
D02*
G03*
X220000Y247000I0J1500D01*
G01*
D02*
G03*
X221500Y245500I1500J0D01*
G01*
D02*
G03*
X220000Y244000I0J-1500D01*
G01*
X221500Y170500D02*
G03*
X220000Y169000I0J-1500D01*
G01*
Y172000D02*
G03*
X221500Y170500I1500J0D01*
G01*
X218500D02*
G03*
X220000Y172000I0J1500D01*
G01*
X219986Y169202D02*
G03*
X218500Y170500I-1486J-202D01*
G01*
X221500Y182500D02*
G03*
X220000Y181000I0J-1500D01*
G01*
Y184000D02*
G03*
X221500Y182500I1500J0D01*
G01*
X218500D02*
G03*
X220000Y184000I0J1500D01*
G01*
X219986Y181202D02*
G03*
X218500Y182500I-1486J-202D01*
G01*
X221500Y194500D02*
G03*
X220000Y193000I0J-1500D01*
G01*
Y196000D02*
G03*
X221500Y194500I1500J0D01*
G01*
X218500D02*
G03*
X220000Y196000I0J1500D01*
G01*
X219986Y193202D02*
G03*
X218500Y194500I-1486J-202D01*
G01*
X221500Y206500D02*
G03*
X220000Y205000I0J-1500D01*
G01*
Y208000D02*
G03*
X221500Y206500I1500J0D01*
G01*
X218500D02*
G03*
X220000Y208000I0J1500D01*
G01*
X219986Y205202D02*
G03*
X218500Y206500I-1486J-202D01*
G01*
X221500Y94500D02*
G03*
X220000Y93000I0J-1500D01*
G01*
Y96000D02*
G03*
X221500Y94500I1500J0D01*
G01*
X218500D02*
G03*
X220000Y96000I0J1500D01*
G01*
X219986Y93202D02*
G03*
X218500Y94500I-1486J-202D01*
G01*
X221500Y106500D02*
G03*
X220000Y105000I0J-1500D01*
G01*
Y108000D02*
G03*
X221500Y106500I1500J0D01*
G01*
X218500D02*
G03*
X220000Y108000I0J1500D01*
G01*
X219986Y105202D02*
G03*
X218500Y106500I-1486J-202D01*
G01*
X221500Y118500D02*
G03*
X220000Y117000I0J-1500D01*
G01*
Y120000D02*
G03*
X221500Y118500I1500J0D01*
G01*
X218500D02*
G03*
X220000Y120000I0J1500D01*
G01*
X219986Y117202D02*
G03*
X218500Y118500I-1486J-202D01*
G01*
X221500Y130500D02*
G03*
X220000Y129000I0J-1500D01*
G01*
Y132000D02*
G03*
X221500Y130500I1500J0D01*
G01*
X218500D02*
G03*
X220000Y132000I0J1500D01*
G01*
X219986Y129202D02*
G03*
X218500Y130500I-1486J-202D01*
G01*
X221500Y17500D02*
G03*
X220000Y16000I0J-1500D01*
G01*
Y19000D02*
G03*
X221500Y17500I1500J0D01*
G01*
X218500D02*
G03*
X220000Y19000I0J1500D01*
G01*
X219986Y16202D02*
G03*
X218500Y17500I-1486J-202D01*
G01*
X221500Y29500D02*
G03*
X220000Y28000I0J-1500D01*
G01*
Y31000D02*
G03*
X221500Y29500I1500J0D01*
G01*
X218500D02*
G03*
X220000Y31000I0J1500D01*
G01*
X219986Y28202D02*
G03*
X218500Y29500I-1486J-202D01*
G01*
X221500Y41500D02*
G03*
X220000Y40000I0J-1500D01*
G01*
Y43000D02*
G03*
X221500Y41500I1500J0D01*
G01*
X218500D02*
G03*
X220000Y43000I0J1500D01*
G01*
X219986Y40202D02*
G03*
X218500Y41500I-1486J-202D01*
G01*
X221500Y53500D02*
G03*
X220000Y52000I0J-1500D01*
G01*
Y55000D02*
G03*
X221500Y53500I1500J0D01*
G01*
X218500D02*
G03*
X220000Y55000I0J1500D01*
G01*
X219986Y52202D02*
G03*
X218500Y53500I-1486J-202D01*
G01*
X220486Y225702D02*
G03*
X219000Y227000I-1486J-202D01*
G01*
D02*
G03*
X220500Y228500I0J1500D01*
G01*
X220500D02*
G03*
X222000Y227000I1500J0D01*
G01*
D02*
G03*
X220500Y225500I0J-1500D01*
G01*
X220486Y149702D02*
G03*
X219000Y151000I-1486J-202D01*
G01*
D02*
G03*
X220500Y152500I0J1500D01*
G01*
D02*
G03*
X222000Y151000I1500J0D01*
G01*
D02*
G03*
X220500Y149500I0J-1500D01*
G01*
X220486Y73702D02*
G03*
X219000Y75000I-1486J-202D01*
G01*
D02*
G03*
X220500Y76500I0J1500D01*
G01*
X220500D02*
G03*
X222000Y75000I1500J0D01*
G01*
D02*
G03*
X220500Y73500I0J-1500D01*
G01*
X234986Y281202D02*
G03*
X233500Y282500I-1486J-202D01*
G01*
D02*
G03*
X235000Y284000I0J1500D01*
G01*
D02*
G03*
X236500Y282500I1500J0D01*
G01*
D02*
G03*
X235000Y281000I0J-1500D01*
G01*
X234986Y269202D02*
G03*
X233500Y270500I-1486J-202D01*
G01*
D02*
G03*
X235000Y272000I0J1500D01*
G01*
D02*
G03*
X236500Y270500I1500J0D01*
G01*
D02*
G03*
X235000Y269000I0J-1500D01*
G01*
X234986Y257202D02*
G03*
X233500Y258500I-1486J-202D01*
G01*
D02*
G03*
X235000Y260000I0J1500D01*
G01*
D02*
G03*
X236500Y258500I1500J0D01*
G01*
D02*
G03*
X235000Y257000I0J-1500D01*
G01*
X234986Y245202D02*
G03*
X233500Y246500I-1486J-202D01*
G01*
D02*
G03*
X235000Y248000I0J1500D01*
G01*
D02*
G03*
X236500Y246500I1500J0D01*
G01*
D02*
G03*
X235000Y245000I0J-1500D01*
G01*
X236500Y171500D02*
G03*
X235000Y170000I0J-1500D01*
G01*
Y173000D02*
G03*
X236500Y171500I1500J0D01*
G01*
X233500D02*
G03*
X235000Y173000I0J1500D01*
G01*
X234986Y170202D02*
G03*
X233500Y171500I-1486J-202D01*
G01*
X236500Y183500D02*
G03*
X235000Y182000I0J-1500D01*
G01*
Y185000D02*
G03*
X236500Y183500I1500J0D01*
G01*
X233500D02*
G03*
X235000Y185000I0J1500D01*
G01*
X234986Y182202D02*
G03*
X233500Y183500I-1486J-202D01*
G01*
X236500Y195500D02*
G03*
X235000Y194000I0J-1500D01*
G01*
Y197000D02*
G03*
X236500Y195500I1500J0D01*
G01*
X233500D02*
G03*
X235000Y197000I0J1500D01*
G01*
X234986Y194202D02*
G03*
X233500Y195500I-1486J-202D01*
G01*
X236500Y207500D02*
G03*
X235000Y206000I0J-1500D01*
G01*
Y209000D02*
G03*
X236500Y207500I1500J0D01*
G01*
X233500D02*
G03*
X235000Y209000I0J1500D01*
G01*
X234986Y206202D02*
G03*
X233500Y207500I-1486J-202D01*
G01*
X236500Y95500D02*
G03*
X235000Y94000I0J-1500D01*
G01*
Y97000D02*
G03*
X236500Y95500I1500J0D01*
G01*
X233500D02*
G03*
X235000Y97000I0J1500D01*
G01*
X234986Y94202D02*
G03*
X233500Y95500I-1486J-202D01*
G01*
X236500Y107500D02*
G03*
X235000Y106000I0J-1500D01*
G01*
Y109000D02*
G03*
X236500Y107500I1500J0D01*
G01*
X233500D02*
G03*
X235000Y109000I0J1500D01*
G01*
X234986Y106202D02*
G03*
X233500Y107500I-1486J-202D01*
G01*
X236500Y119500D02*
G03*
X235000Y118000I0J-1500D01*
G01*
Y121000D02*
G03*
X236500Y119500I1500J0D01*
G01*
X233500D02*
G03*
X235000Y121000I0J1500D01*
G01*
X234986Y118202D02*
G03*
X233500Y119500I-1486J-202D01*
G01*
X236500Y131500D02*
G03*
X235000Y130000I0J-1500D01*
G01*
Y133000D02*
G03*
X236500Y131500I1500J0D01*
G01*
X233500D02*
G03*
X235000Y133000I0J1500D01*
G01*
X234986Y130202D02*
G03*
X233500Y131500I-1486J-202D01*
G01*
X236500Y18500D02*
G03*
X235000Y17000I0J-1500D01*
G01*
Y20000D02*
G03*
X236500Y18500I1500J0D01*
G01*
X233500D02*
G03*
X235000Y20000I0J1500D01*
G01*
X234986Y17202D02*
G03*
X233500Y18500I-1486J-202D01*
G01*
X236500Y30500D02*
G03*
X235000Y29000I0J-1500D01*
G01*
Y32000D02*
G03*
X236500Y30500I1500J0D01*
G01*
X233500D02*
G03*
X235000Y32000I0J1500D01*
G01*
X234986Y29202D02*
G03*
X233500Y30500I-1486J-202D01*
G01*
X236500Y42500D02*
G03*
X235000Y41000I0J-1500D01*
G01*
Y44000D02*
G03*
X236500Y42500I1500J0D01*
G01*
X233500D02*
G03*
X235000Y44000I0J1500D01*
G01*
X234986Y41202D02*
G03*
X233500Y42500I-1486J-202D01*
G01*
X236500Y54500D02*
G03*
X235000Y53000I0J-1500D01*
G01*
Y56000D02*
G03*
X236500Y54500I1500J0D01*
G01*
X233500D02*
G03*
X235000Y56000I0J1500D01*
G01*
X234986Y53202D02*
G03*
X233500Y54500I-1486J-202D01*
G01*
X235486Y226702D02*
G03*
X234000Y228000I-1486J-202D01*
G01*
D02*
G03*
X235500Y229500I0J1500D01*
G01*
X235500D02*
G03*
X237000Y228000I1500J0D01*
G01*
D02*
G03*
X235500Y226500I0J-1500D01*
G01*
X235486Y150702D02*
G03*
X234000Y152000I-1486J-202D01*
G01*
D02*
G03*
X235500Y153500I0J1500D01*
G01*
D02*
G03*
X237000Y152000I1500J0D01*
G01*
D02*
G03*
X235500Y150500I0J-1500D01*
G01*
X235486Y74702D02*
G03*
X234000Y76000I-1486J-202D01*
G01*
D02*
G03*
X235500Y77500I0J1500D01*
G01*
X235500D02*
G03*
X237000Y76000I1500J0D01*
G01*
D02*
G03*
X235500Y74500I0J-1500D01*
G01*
X295986Y281202D02*
G03*
X294500Y282500I-1486J-202D01*
G01*
D02*
G03*
X296000Y284000I0J1500D01*
G01*
D02*
G03*
X297500Y282500I1500J0D01*
G01*
D02*
G03*
X296000Y281000I0J-1500D01*
G01*
X295986Y269202D02*
G03*
X294500Y270500I-1486J-202D01*
G01*
D02*
G03*
X296000Y272000I0J1500D01*
G01*
D02*
G03*
X297500Y270500I1500J0D01*
G01*
D02*
G03*
X296000Y269000I0J-1500D01*
G01*
X295986Y257202D02*
G03*
X294500Y258500I-1486J-202D01*
G01*
D02*
G03*
X296000Y260000I0J1500D01*
G01*
D02*
G03*
X297500Y258500I1500J0D01*
G01*
D02*
G03*
X296000Y257000I0J-1500D01*
G01*
X295986Y245202D02*
G03*
X294500Y246500I-1486J-202D01*
G01*
D02*
G03*
X296000Y248000I0J1500D01*
G01*
D02*
G03*
X297500Y246500I1500J0D01*
G01*
D02*
G03*
X296000Y245000I0J-1500D01*
G01*
X297500Y171500D02*
G03*
X296000Y170000I0J-1500D01*
G01*
Y173000D02*
G03*
X297500Y171500I1500J0D01*
G01*
X294500D02*
G03*
X296000Y173000I0J1500D01*
G01*
X295986Y170202D02*
G03*
X294500Y171500I-1486J-202D01*
G01*
X297500Y183500D02*
G03*
X296000Y182000I0J-1500D01*
G01*
Y185000D02*
G03*
X297500Y183500I1500J0D01*
G01*
X294500D02*
G03*
X296000Y185000I0J1500D01*
G01*
X295986Y182202D02*
G03*
X294500Y183500I-1486J-202D01*
G01*
X297500Y195500D02*
G03*
X296000Y194000I0J-1500D01*
G01*
Y197000D02*
G03*
X297500Y195500I1500J0D01*
G01*
X294500D02*
G03*
X296000Y197000I0J1500D01*
G01*
X295986Y194202D02*
G03*
X294500Y195500I-1486J-202D01*
G01*
X297500Y207500D02*
G03*
X296000Y206000I0J-1500D01*
G01*
Y209000D02*
G03*
X297500Y207500I1500J0D01*
G01*
X294500D02*
G03*
X296000Y209000I0J1500D01*
G01*
X295986Y206202D02*
G03*
X294500Y207500I-1486J-202D01*
G01*
X297500Y95500D02*
G03*
X296000Y94000I0J-1500D01*
G01*
Y97000D02*
G03*
X297500Y95500I1500J0D01*
G01*
X294500D02*
G03*
X296000Y97000I0J1500D01*
G01*
X295986Y94202D02*
G03*
X294500Y95500I-1486J-202D01*
G01*
X297500Y107500D02*
G03*
X296000Y106000I0J-1500D01*
G01*
Y109000D02*
G03*
X297500Y107500I1500J0D01*
G01*
X294500D02*
G03*
X296000Y109000I0J1500D01*
G01*
X295986Y106202D02*
G03*
X294500Y107500I-1486J-202D01*
G01*
X297500Y119500D02*
G03*
X296000Y118000I0J-1500D01*
G01*
Y121000D02*
G03*
X297500Y119500I1500J0D01*
G01*
X294500D02*
G03*
X296000Y121000I0J1500D01*
G01*
X295986Y118202D02*
G03*
X294500Y119500I-1486J-202D01*
G01*
X297500Y131500D02*
G03*
X296000Y130000I0J-1500D01*
G01*
Y133000D02*
G03*
X297500Y131500I1500J0D01*
G01*
X294500D02*
G03*
X296000Y133000I0J1500D01*
G01*
X295986Y130202D02*
G03*
X294500Y131500I-1486J-202D01*
G01*
X297500Y18500D02*
G03*
X296000Y17000I0J-1500D01*
G01*
Y20000D02*
G03*
X297500Y18500I1500J0D01*
G01*
X294500D02*
G03*
X296000Y20000I0J1500D01*
G01*
X295986Y17202D02*
G03*
X294500Y18500I-1486J-202D01*
G01*
X297500Y30500D02*
G03*
X296000Y29000I0J-1500D01*
G01*
Y32000D02*
G03*
X297500Y30500I1500J0D01*
G01*
X294500D02*
G03*
X296000Y32000I0J1500D01*
G01*
X295986Y29202D02*
G03*
X294500Y30500I-1486J-202D01*
G01*
X297500Y42500D02*
G03*
X296000Y41000I0J-1500D01*
G01*
Y44000D02*
G03*
X297500Y42500I1500J0D01*
G01*
X294500D02*
G03*
X296000Y44000I0J1500D01*
G01*
X295986Y41202D02*
G03*
X294500Y42500I-1486J-202D01*
G01*
X297500Y54500D02*
G03*
X296000Y53000I0J-1500D01*
G01*
Y56000D02*
G03*
X297500Y54500I1500J0D01*
G01*
X294500D02*
G03*
X296000Y56000I0J1500D01*
G01*
X295986Y53202D02*
G03*
X294500Y54500I-1486J-202D01*
G01*
X296486Y226702D02*
G03*
X295000Y228000I-1486J-202D01*
G01*
D02*
G03*
X296500Y229500I0J1500D01*
G01*
X296500D02*
G03*
X298000Y228000I1500J0D01*
G01*
D02*
G03*
X296500Y226500I0J-1500D01*
G01*
X296486Y150702D02*
G03*
X295000Y152000I-1486J-202D01*
G01*
D02*
G03*
X296500Y153500I0J1500D01*
G01*
D02*
G03*
X298000Y152000I1500J0D01*
G01*
D02*
G03*
X296500Y150500I0J-1500D01*
G01*
X296486Y74702D02*
G03*
X295000Y76000I-1486J-202D01*
G01*
D02*
G03*
X296500Y77500I0J1500D01*
G01*
X296500D02*
G03*
X298000Y76000I1500J0D01*
G01*
D02*
G03*
X296500Y74500I0J-1500D01*
G01*
X293674Y238368D02*
G03*
X299197Y238368I2761J2761D01*
G01*
X293793Y232793D02*
G03*
X293793Y238316I-2761J2761D01*
G01*
X299197Y238368D02*
G03*
X299197Y232845I2761J-2761D01*
G01*
X299194Y232676D02*
G03*
X293793Y232793I-2761J-2761D01*
G01*
X238204Y232758D02*
G03*
X232804Y232875I-2761J-2761D01*
G01*
X238207Y238450D02*
G03*
X238207Y232927I2761J-2761D01*
G01*
X232804Y232875D02*
G03*
X232804Y238397I-2761J2761D01*
G01*
X232684Y238450D02*
G03*
X238207Y238450I2761J2761D01*
G01*
X281202Y236014D02*
G03*
X282500Y237500I-202J1486D01*
G01*
D02*
G03*
X284000Y236000I1500J0D01*
G01*
D02*
G03*
X282500Y234500I0J-1500D01*
G01*
D02*
G03*
X281000Y236000I-1500J0D01*
G01*
X269202Y236014D02*
G03*
X270500Y237500I-202J1486D01*
G01*
D02*
G03*
X272000Y236000I1500J0D01*
G01*
D02*
G03*
X270500Y234500I0J-1500D01*
G01*
D02*
G03*
X269000Y236000I-1500J0D01*
G01*
X257202Y236014D02*
G03*
X258500Y237500I-202J1486D01*
G01*
D02*
G03*
X260000Y236000I1500J0D01*
G01*
D02*
G03*
X258500Y234500I0J-1500D01*
G01*
D02*
G03*
X257000Y236000I-1500J0D01*
G01*
X245202Y236014D02*
G03*
X246500Y237500I-202J1486D01*
G01*
D02*
G03*
X248000Y236000I1500J0D01*
G01*
D02*
G03*
X246500Y234500I0J-1500D01*
G01*
D02*
G03*
X245000Y236000I-1500J0D01*
G01*
X217381Y238075D02*
G03*
X222904Y238075I2761J2761D01*
G01*
X217500Y232500D02*
G03*
X217500Y238023I-2761J2761D01*
G01*
X222904Y238075D02*
G03*
X222904Y232552I2761J-2761D01*
G01*
X222901Y232383D02*
G03*
X217500Y232500I-2761J-2761D01*
G01*
X157381Y238075D02*
G03*
X162904Y238075I2761J2761D01*
G01*
X157500Y232500D02*
G03*
X157500Y238023I-2761J2761D01*
G01*
X162904Y238075D02*
G03*
X162904Y232552I2761J-2761D01*
G01*
X162901Y232383D02*
G03*
X157500Y232500I-2761J-2761D01*
G01*
X141381Y238075D02*
G03*
X146904Y238075I2761J2761D01*
G01*
X141500Y232500D02*
G03*
X141500Y238023I-2761J2761D01*
G01*
X146904Y238075D02*
G03*
X146904Y232552I2761J-2761D01*
G01*
X146901Y232383D02*
G03*
X141500Y232500I-2761J-2761D01*
G01*
X81381Y238075D02*
G03*
X86904Y238075I2761J2761D01*
G01*
X81500Y232500D02*
G03*
X81500Y238023I-2761J2761D01*
G01*
X86904Y238075D02*
G03*
X86904Y232552I2761J-2761D01*
G01*
X86901Y232383D02*
G03*
X81500Y232500I-2761J-2761D01*
G01*
X65381Y238075D02*
G03*
X70904Y238075I2761J2761D01*
G01*
X65500Y232500D02*
G03*
X65500Y238023I-2761J2761D01*
G01*
X70904Y238075D02*
G03*
X70904Y232552I2761J-2761D01*
G01*
X70901Y232383D02*
G03*
X65500Y232500I-2761J-2761D01*
G01*
X5381Y238075D02*
G03*
X10904Y238075I2761J2761D01*
G01*
X5500Y232500D02*
G03*
X5500Y238023I-2761J2761D01*
G01*
X10904Y238075D02*
G03*
X10904Y232552I2761J-2761D01*
G01*
X10901Y232383D02*
G03*
X5500Y232500I-2761J-2761D01*
G01*
X171500Y234500D02*
G03*
X170000Y236000I-1500J0D01*
G01*
X173000D02*
G03*
X171500Y234500I0J-1500D01*
G01*
Y237500D02*
G03*
X173000Y236000I1500J0D01*
G01*
X170202Y236014D02*
G03*
X171500Y237500I-202J1486D01*
G01*
X183500Y234500D02*
G03*
X182000Y236000I-1500J0D01*
G01*
X185000D02*
G03*
X183500Y234500I0J-1500D01*
G01*
Y237500D02*
G03*
X185000Y236000I1500J0D01*
G01*
X182202Y236014D02*
G03*
X183500Y237500I-202J1486D01*
G01*
X195500Y234500D02*
G03*
X194000Y236000I-1500J0D01*
G01*
X197000D02*
G03*
X195500Y234500I0J-1500D01*
G01*
Y237500D02*
G03*
X197000Y236000I1500J0D01*
G01*
X194202Y236014D02*
G03*
X195500Y237500I-202J1486D01*
G01*
X207500Y234500D02*
G03*
X206000Y236000I-1500J0D01*
G01*
X209000D02*
G03*
X207500Y234500I0J-1500D01*
G01*
Y237500D02*
G03*
X209000Y236000I1500J0D01*
G01*
X206202Y236014D02*
G03*
X207500Y237500I-202J1486D01*
G01*
X95500Y234500D02*
G03*
X94000Y236000I-1500J0D01*
G01*
X97000D02*
G03*
X95500Y234500I0J-1500D01*
G01*
Y237500D02*
G03*
X97000Y236000I1500J0D01*
G01*
X94202Y236014D02*
G03*
X95500Y237500I-202J1486D01*
G01*
X107500Y234500D02*
G03*
X106000Y236000I-1500J0D01*
G01*
X109000D02*
G03*
X107500Y234500I0J-1500D01*
G01*
Y237500D02*
G03*
X109000Y236000I1500J0D01*
G01*
X106202Y236014D02*
G03*
X107500Y237500I-202J1486D01*
G01*
X119500Y234500D02*
G03*
X118000Y236000I-1500J0D01*
G01*
X121000D02*
G03*
X119500Y234500I0J-1500D01*
G01*
Y237500D02*
G03*
X121000Y236000I1500J0D01*
G01*
X118202Y236014D02*
G03*
X119500Y237500I-202J1486D01*
G01*
X131500Y234500D02*
G03*
X130000Y236000I-1500J0D01*
G01*
X133000D02*
G03*
X131500Y234500I0J-1500D01*
G01*
Y237500D02*
G03*
X133000Y236000I1500J0D01*
G01*
X130202Y236014D02*
G03*
X131500Y237500I-202J1486D01*
G01*
X18500Y234500D02*
G03*
X17000Y236000I-1500J0D01*
G01*
X20000D02*
G03*
X18500Y234500I0J-1500D01*
G01*
Y237500D02*
G03*
X20000Y236000I1500J0D01*
G01*
X17202Y236014D02*
G03*
X18500Y237500I-202J1486D01*
G01*
X30500Y234500D02*
G03*
X29000Y236000I-1500J0D01*
G01*
X32000D02*
G03*
X30500Y234500I0J-1500D01*
G01*
Y237500D02*
G03*
X32000Y236000I1500J0D01*
G01*
X29202Y236014D02*
G03*
X30500Y237500I-202J1486D01*
G01*
X42500Y234500D02*
G03*
X41000Y236000I-1500J0D01*
G01*
X44000D02*
G03*
X42500Y234500I0J-1500D01*
G01*
Y237500D02*
G03*
X44000Y236000I1500J0D01*
G01*
X41202Y236014D02*
G03*
X42500Y237500I-202J1486D01*
G01*
X54500Y234500D02*
G03*
X53000Y236000I-1500J0D01*
G01*
X56000D02*
G03*
X54500Y234500I0J-1500D01*
G01*
Y237500D02*
G03*
X56000Y236000I1500J0D01*
G01*
X53202Y236014D02*
G03*
X54500Y237500I-202J1486D01*
G01*
X226702Y235514D02*
G03*
X228000Y237000I-202J1486D01*
G01*
D02*
G03*
X229500Y235500I1500J0D01*
G01*
D02*
G03*
X228000Y234000I0J-1500D01*
G01*
D02*
G03*
X226500Y235500I-1500J0D01*
G01*
X150702Y235514D02*
G03*
X152000Y237000I-202J1486D01*
G01*
D02*
G03*
X153500Y235500I1500J0D01*
G01*
D02*
G03*
X152000Y234000I0J-1500D01*
G01*
D02*
G03*
X150500Y235500I-1500J0D01*
G01*
X74702Y235514D02*
G03*
X76000Y237000I-202J1486D01*
G01*
D02*
G03*
X77500Y235500I1500J0D01*
G01*
D02*
G03*
X76000Y234000I0J-1500D01*
G01*
D02*
G03*
X74500Y235500I-1500J0D01*
G01*
X293674Y10368D02*
G03*
X299197Y10368I2761J2761D01*
G01*
X293793Y4793D02*
G03*
X293793Y10316I-2761J2761D01*
G01*
X299197Y10368D02*
G03*
X299197Y4845I2761J-2761D01*
G01*
X299194Y4676D02*
G03*
X293793Y4793I-2761J-2761D01*
G01*
X238204Y4758D02*
G03*
X232804Y4875I-2761J-2761D01*
G01*
X238207Y10450D02*
G03*
X238207Y4927I2761J-2761D01*
G01*
X232804Y4875D02*
G03*
X232804Y10397I-2761J2761D01*
G01*
X232684Y10450D02*
G03*
X238207Y10450I2761J2761D01*
G01*
X281202Y8014D02*
G03*
X282500Y9500I-202J1486D01*
G01*
D02*
G03*
X284000Y8000I1500J0D01*
G01*
D02*
G03*
X282500Y6500I0J-1500D01*
G01*
D02*
G03*
X281000Y8000I-1500J0D01*
G01*
X269202Y8014D02*
G03*
X270500Y9500I-202J1486D01*
G01*
D02*
G03*
X272000Y8000I1500J0D01*
G01*
D02*
G03*
X270500Y6500I0J-1500D01*
G01*
D02*
G03*
X269000Y8000I-1500J0D01*
G01*
X257202Y8014D02*
G03*
X258500Y9500I-202J1486D01*
G01*
D02*
G03*
X260000Y8000I1500J0D01*
G01*
D02*
G03*
X258500Y6500I0J-1500D01*
G01*
D02*
G03*
X257000Y8000I-1500J0D01*
G01*
X245202Y8014D02*
G03*
X246500Y9500I-202J1486D01*
G01*
D02*
G03*
X248000Y8000I1500J0D01*
G01*
D02*
G03*
X246500Y6500I0J-1500D01*
G01*
D02*
G03*
X245000Y8000I-1500J0D01*
G01*
X217381Y10075D02*
G03*
X222904Y10075I2761J2761D01*
G01*
X217500Y4500D02*
G03*
X217500Y10023I-2761J2761D01*
G01*
X222904Y10075D02*
G03*
X222904Y4552I2761J-2761D01*
G01*
X222901Y4383D02*
G03*
X217500Y4500I-2761J-2761D01*
G01*
X157381Y10075D02*
G03*
X162904Y10075I2761J2761D01*
G01*
X157500Y4500D02*
G03*
X157500Y10023I-2761J2761D01*
G01*
X162904Y10075D02*
G03*
X162904Y4552I2761J-2761D01*
G01*
X162901Y4383D02*
G03*
X157500Y4500I-2761J-2761D01*
G01*
X141381Y10075D02*
G03*
X146904Y10075I2761J2761D01*
G01*
X141500Y4500D02*
G03*
X141500Y10023I-2761J2761D01*
G01*
X146904Y10075D02*
G03*
X146904Y4552I2761J-2761D01*
G01*
X146901Y4383D02*
G03*
X141500Y4500I-2761J-2761D01*
G01*
X81381Y10075D02*
G03*
X86904Y10075I2761J2761D01*
G01*
X81500Y4500D02*
G03*
X81500Y10023I-2761J2761D01*
G01*
X86904Y10075D02*
G03*
X86904Y4552I2761J-2761D01*
G01*
X86901Y4383D02*
G03*
X81500Y4500I-2761J-2761D01*
G01*
X65381Y10075D02*
G03*
X70904Y10075I2761J2761D01*
G01*
X65500Y4500D02*
G03*
X65500Y10023I-2761J2761D01*
G01*
X70904Y10075D02*
G03*
X70904Y4552I2761J-2761D01*
G01*
X70901Y4383D02*
G03*
X65500Y4500I-2761J-2761D01*
G01*
X5381Y10075D02*
G03*
X10904Y10075I2761J2761D01*
G01*
X5500Y4500D02*
G03*
X5500Y10023I-2761J2761D01*
G01*
X10904Y10075D02*
G03*
X10904Y4552I2761J-2761D01*
G01*
X10901Y4383D02*
G03*
X5500Y4500I-2761J-2761D01*
G01*
X171500Y6500D02*
G03*
X170000Y8000I-1500J0D01*
G01*
X173000D02*
G03*
X171500Y6500I0J-1500D01*
G01*
Y9500D02*
G03*
X173000Y8000I1500J0D01*
G01*
X170202Y8014D02*
G03*
X171500Y9500I-202J1486D01*
G01*
X183500Y6500D02*
G03*
X182000Y8000I-1500J0D01*
G01*
X185000D02*
G03*
X183500Y6500I0J-1500D01*
G01*
Y9500D02*
G03*
X185000Y8000I1500J0D01*
G01*
X182202Y8014D02*
G03*
X183500Y9500I-202J1486D01*
G01*
X195500Y6500D02*
G03*
X194000Y8000I-1500J0D01*
G01*
X197000D02*
G03*
X195500Y6500I0J-1500D01*
G01*
Y9500D02*
G03*
X197000Y8000I1500J0D01*
G01*
X194202Y8014D02*
G03*
X195500Y9500I-202J1486D01*
G01*
X207500Y6500D02*
G03*
X206000Y8000I-1500J0D01*
G01*
X209000D02*
G03*
X207500Y6500I0J-1500D01*
G01*
Y9500D02*
G03*
X209000Y8000I1500J0D01*
G01*
X206202Y8014D02*
G03*
X207500Y9500I-202J1486D01*
G01*
X95500Y6500D02*
G03*
X94000Y8000I-1500J0D01*
G01*
X97000D02*
G03*
X95500Y6500I0J-1500D01*
G01*
Y9500D02*
G03*
X97000Y8000I1500J0D01*
G01*
X94202Y8014D02*
G03*
X95500Y9500I-202J1486D01*
G01*
X107500Y6500D02*
G03*
X106000Y8000I-1500J0D01*
G01*
X109000D02*
G03*
X107500Y6500I0J-1500D01*
G01*
Y9500D02*
G03*
X109000Y8000I1500J0D01*
G01*
X106202Y8014D02*
G03*
X107500Y9500I-202J1486D01*
G01*
X119500Y6500D02*
G03*
X118000Y8000I-1500J0D01*
G01*
X121000D02*
G03*
X119500Y6500I0J-1500D01*
G01*
Y9500D02*
G03*
X121000Y8000I1500J0D01*
G01*
X118202Y8014D02*
G03*
X119500Y9500I-202J1486D01*
G01*
X131500Y6500D02*
G03*
X130000Y8000I-1500J0D01*
G01*
X133000D02*
G03*
X131500Y6500I0J-1500D01*
G01*
Y9500D02*
G03*
X133000Y8000I1500J0D01*
G01*
X130202Y8014D02*
G03*
X131500Y9500I-202J1486D01*
G01*
X18500Y6500D02*
G03*
X17000Y8000I-1500J0D01*
G01*
X20000D02*
G03*
X18500Y6500I0J-1500D01*
G01*
Y9500D02*
G03*
X20000Y8000I1500J0D01*
G01*
X17202Y8014D02*
G03*
X18500Y9500I-202J1486D01*
G01*
X30500Y6500D02*
G03*
X29000Y8000I-1500J0D01*
G01*
X32000D02*
G03*
X30500Y6500I0J-1500D01*
G01*
Y9500D02*
G03*
X32000Y8000I1500J0D01*
G01*
X29202Y8014D02*
G03*
X30500Y9500I-202J1486D01*
G01*
X42500Y6500D02*
G03*
X41000Y8000I-1500J0D01*
G01*
X44000D02*
G03*
X42500Y6500I0J-1500D01*
G01*
Y9500D02*
G03*
X44000Y8000I1500J0D01*
G01*
X41202Y8014D02*
G03*
X42500Y9500I-202J1486D01*
G01*
X54500Y6500D02*
G03*
X53000Y8000I-1500J0D01*
G01*
X56000D02*
G03*
X54500Y6500I0J-1500D01*
G01*
Y9500D02*
G03*
X56000Y8000I1500J0D01*
G01*
X53202Y8014D02*
G03*
X54500Y9500I-202J1486D01*
G01*
X226702Y7514D02*
G03*
X228000Y9000I-202J1486D01*
G01*
D02*
G03*
X229500Y7500I1500J0D01*
G01*
D02*
G03*
X228000Y6000I0J-1500D01*
G01*
D02*
G03*
X226500Y7500I-1500J0D01*
G01*
X150702Y7514D02*
G03*
X152000Y9000I-202J1486D01*
G01*
D02*
G03*
X153500Y7500I1500J0D01*
G01*
D02*
G03*
X152000Y6000I0J-1500D01*
G01*
D02*
G03*
X150500Y7500I-1500J0D01*
G01*
X74702Y7514D02*
G03*
X76000Y9000I-202J1486D01*
G01*
D02*
G03*
X77500Y7500I1500J0D01*
G01*
D02*
G03*
X76000Y6000I0J-1500D01*
G01*
D02*
G03*
X74500Y7500I-1500J0D01*
G01*
X293674Y70368D02*
G03*
X299197Y70368I2761J2761D01*
G01*
X293793Y64793D02*
G03*
X293793Y70316I-2761J2761D01*
G01*
X299197Y70368D02*
G03*
X299197Y64845I2761J-2761D01*
G01*
X299194Y64676D02*
G03*
X293793Y64793I-2761J-2761D01*
G01*
X238204Y64758D02*
G03*
X232804Y64875I-2761J-2761D01*
G01*
X238207Y70450D02*
G03*
X238207Y64927I2761J-2761D01*
G01*
X232804Y64875D02*
G03*
X232804Y70398I-2761J2761D01*
G01*
X232684Y70450D02*
G03*
X238207Y70450I2761J2761D01*
G01*
X281202Y68014D02*
G03*
X282500Y69500I-202J1486D01*
G01*
D02*
G03*
X284000Y68000I1500J0D01*
G01*
D02*
G03*
X282500Y66500I0J-1500D01*
G01*
D02*
G03*
X281000Y68000I-1500J0D01*
G01*
X269202Y68014D02*
G03*
X270500Y69500I-202J1486D01*
G01*
D02*
G03*
X272000Y68000I1500J0D01*
G01*
D02*
G03*
X270500Y66500I0J-1500D01*
G01*
D02*
G03*
X269000Y68000I-1500J0D01*
G01*
X257202Y68014D02*
G03*
X258500Y69500I-202J1486D01*
G01*
D02*
G03*
X260000Y68000I1500J0D01*
G01*
D02*
G03*
X258500Y66500I0J-1500D01*
G01*
D02*
G03*
X257000Y68000I-1500J0D01*
G01*
X245202Y68014D02*
G03*
X246500Y69500I-202J1486D01*
G01*
D02*
G03*
X248000Y68000I1500J0D01*
G01*
D02*
G03*
X246500Y66500I0J-1500D01*
G01*
D02*
G03*
X245000Y68000I-1500J0D01*
G01*
X217381Y70075D02*
G03*
X222904Y70075I2761J2761D01*
G01*
X217500Y64500D02*
G03*
X217500Y70023I-2761J2761D01*
G01*
X222904Y70075D02*
G03*
X222904Y64552I2761J-2761D01*
G01*
X222901Y64383D02*
G03*
X217500Y64500I-2761J-2761D01*
G01*
X157381Y70075D02*
G03*
X162904Y70075I2761J2761D01*
G01*
X157500Y64500D02*
G03*
X157500Y70023I-2761J2761D01*
G01*
X162904Y70075D02*
G03*
X162904Y64552I2761J-2761D01*
G01*
X162901Y64383D02*
G03*
X157500Y64500I-2761J-2761D01*
G01*
X141381Y70075D02*
G03*
X146904Y70075I2761J2761D01*
G01*
X141500Y64500D02*
G03*
X141500Y70023I-2761J2761D01*
G01*
X146904Y70075D02*
G03*
X146904Y64552I2761J-2761D01*
G01*
X146901Y64383D02*
G03*
X141500Y64500I-2761J-2761D01*
G01*
X81381Y70075D02*
G03*
X86904Y70075I2761J2761D01*
G01*
X81500Y64500D02*
G03*
X81500Y70023I-2761J2761D01*
G01*
X86904Y70075D02*
G03*
X86904Y64552I2761J-2761D01*
G01*
X86901Y64383D02*
G03*
X81500Y64500I-2761J-2761D01*
G01*
X65381Y70075D02*
G03*
X70904Y70075I2761J2761D01*
G01*
X65500Y64500D02*
G03*
X65500Y70023I-2761J2761D01*
G01*
X70904Y70075D02*
G03*
X70904Y64552I2761J-2761D01*
G01*
X70901Y64383D02*
G03*
X65500Y64500I-2761J-2761D01*
G01*
X5381Y70075D02*
G03*
X10904Y70075I2761J2761D01*
G01*
X5500Y64500D02*
G03*
X5500Y70023I-2761J2761D01*
G01*
X10904Y70075D02*
G03*
X10904Y64552I2761J-2761D01*
G01*
X10901Y64383D02*
G03*
X5500Y64500I-2761J-2761D01*
G01*
X171500Y66500D02*
G03*
X170000Y68000I-1500J0D01*
G01*
X173000D02*
G03*
X171500Y66500I0J-1500D01*
G01*
Y69500D02*
G03*
X173000Y68000I1500J0D01*
G01*
X170202Y68014D02*
G03*
X171500Y69500I-202J1486D01*
G01*
X183500Y66500D02*
G03*
X182000Y68000I-1500J0D01*
G01*
X185000D02*
G03*
X183500Y66500I0J-1500D01*
G01*
Y69500D02*
G03*
X185000Y68000I1500J0D01*
G01*
X182202Y68014D02*
G03*
X183500Y69500I-202J1486D01*
G01*
X195500Y66500D02*
G03*
X194000Y68000I-1500J0D01*
G01*
X197000D02*
G03*
X195500Y66500I0J-1500D01*
G01*
Y69500D02*
G03*
X197000Y68000I1500J0D01*
G01*
X194202Y68014D02*
G03*
X195500Y69500I-202J1486D01*
G01*
X207500Y66500D02*
G03*
X206000Y68000I-1500J0D01*
G01*
X209000D02*
G03*
X207500Y66500I0J-1500D01*
G01*
Y69500D02*
G03*
X209000Y68000I1500J0D01*
G01*
X206202Y68014D02*
G03*
X207500Y69500I-202J1486D01*
G01*
X95500Y66500D02*
G03*
X94000Y68000I-1500J0D01*
G01*
X97000D02*
G03*
X95500Y66500I0J-1500D01*
G01*
Y69500D02*
G03*
X97000Y68000I1500J0D01*
G01*
X94202Y68014D02*
G03*
X95500Y69500I-202J1486D01*
G01*
X107500Y66500D02*
G03*
X106000Y68000I-1500J0D01*
G01*
X109000D02*
G03*
X107500Y66500I0J-1500D01*
G01*
Y69500D02*
G03*
X109000Y68000I1500J0D01*
G01*
X106202Y68014D02*
G03*
X107500Y69500I-202J1486D01*
G01*
X119500Y66500D02*
G03*
X118000Y68000I-1500J0D01*
G01*
X121000D02*
G03*
X119500Y66500I0J-1500D01*
G01*
Y69500D02*
G03*
X121000Y68000I1500J0D01*
G01*
X118202Y68014D02*
G03*
X119500Y69500I-202J1486D01*
G01*
X131500Y66500D02*
G03*
X130000Y68000I-1500J0D01*
G01*
X133000D02*
G03*
X131500Y66500I0J-1500D01*
G01*
Y69500D02*
G03*
X133000Y68000I1500J0D01*
G01*
X130202Y68014D02*
G03*
X131500Y69500I-202J1486D01*
G01*
X18500Y66500D02*
G03*
X17000Y68000I-1500J0D01*
G01*
X20000D02*
G03*
X18500Y66500I0J-1500D01*
G01*
Y69500D02*
G03*
X20000Y68000I1500J0D01*
G01*
X17202Y68014D02*
G03*
X18500Y69500I-202J1486D01*
G01*
X30500Y66500D02*
G03*
X29000Y68000I-1500J0D01*
G01*
X32000D02*
G03*
X30500Y66500I0J-1500D01*
G01*
Y69500D02*
G03*
X32000Y68000I1500J0D01*
G01*
X29202Y68014D02*
G03*
X30500Y69500I-202J1486D01*
G01*
X42500Y66500D02*
G03*
X41000Y68000I-1500J0D01*
G01*
X44000D02*
G03*
X42500Y66500I0J-1500D01*
G01*
Y69500D02*
G03*
X44000Y68000I1500J0D01*
G01*
X41202Y68014D02*
G03*
X42500Y69500I-202J1486D01*
G01*
X54500Y66500D02*
G03*
X53000Y68000I-1500J0D01*
G01*
X56000D02*
G03*
X54500Y66500I0J-1500D01*
G01*
Y69500D02*
G03*
X56000Y68000I1500J0D01*
G01*
X53202Y68014D02*
G03*
X54500Y69500I-202J1486D01*
G01*
X226702Y67514D02*
G03*
X228000Y69000I-202J1486D01*
G01*
D02*
G03*
X229500Y67500I1500J0D01*
G01*
D02*
G03*
X228000Y66000I0J-1500D01*
G01*
D02*
G03*
X226500Y67500I-1500J0D01*
G01*
X150702Y67514D02*
G03*
X152000Y69000I-202J1486D01*
G01*
D02*
G03*
X153500Y67500I1500J0D01*
G01*
D02*
G03*
X152000Y66000I0J-1500D01*
G01*
D02*
G03*
X150500Y67500I-1500J0D01*
G01*
X74702Y67514D02*
G03*
X76000Y69000I-202J1486D01*
G01*
D02*
G03*
X77500Y67500I1500J0D01*
G01*
D02*
G03*
X76000Y66000I0J-1500D01*
G01*
D02*
G03*
X74500Y67500I-1500J0D01*
G01*
X293674Y86368D02*
G03*
X299197Y86368I2761J2761D01*
G01*
X293793Y80793D02*
G03*
X293793Y86316I-2761J2761D01*
G01*
X299197Y86368D02*
G03*
X299197Y80845I2761J-2761D01*
G01*
X299194Y80676D02*
G03*
X293793Y80793I-2761J-2761D01*
G01*
X238204Y80758D02*
G03*
X232804Y80875I-2761J-2761D01*
G01*
X238207Y86450D02*
G03*
X238207Y80927I2761J-2761D01*
G01*
X232804Y80875D02*
G03*
X232804Y86397I-2761J2761D01*
G01*
X232684Y86450D02*
G03*
X238207Y86450I2761J2761D01*
G01*
X281202Y84014D02*
G03*
X282500Y85500I-202J1486D01*
G01*
D02*
G03*
X284000Y84000I1500J0D01*
G01*
D02*
G03*
X282500Y82500I0J-1500D01*
G01*
D02*
G03*
X281000Y84000I-1500J0D01*
G01*
X269202Y84014D02*
G03*
X270500Y85500I-202J1486D01*
G01*
D02*
G03*
X272000Y84000I1500J0D01*
G01*
D02*
G03*
X270500Y82500I0J-1500D01*
G01*
D02*
G03*
X269000Y84000I-1500J0D01*
G01*
X257202Y84014D02*
G03*
X258500Y85500I-202J1486D01*
G01*
D02*
G03*
X260000Y84000I1500J0D01*
G01*
D02*
G03*
X258500Y82500I0J-1500D01*
G01*
D02*
G03*
X257000Y84000I-1500J0D01*
G01*
X245202Y84014D02*
G03*
X246500Y85500I-202J1486D01*
G01*
D02*
G03*
X248000Y84000I1500J0D01*
G01*
D02*
G03*
X246500Y82500I0J-1500D01*
G01*
D02*
G03*
X245000Y84000I-1500J0D01*
G01*
X217381Y86075D02*
G03*
X222904Y86075I2761J2761D01*
G01*
X217500Y80500D02*
G03*
X217500Y86023I-2761J2761D01*
G01*
X222904Y86075D02*
G03*
X222904Y80552I2761J-2761D01*
G01*
X222901Y80383D02*
G03*
X217500Y80500I-2761J-2761D01*
G01*
X157381Y86075D02*
G03*
X162904Y86075I2761J2761D01*
G01*
X157500Y80500D02*
G03*
X157500Y86023I-2761J2761D01*
G01*
X162904Y86075D02*
G03*
X162904Y80552I2761J-2761D01*
G01*
X162901Y80383D02*
G03*
X157500Y80500I-2761J-2761D01*
G01*
X141381Y86075D02*
G03*
X146904Y86075I2761J2761D01*
G01*
X141500Y80500D02*
G03*
X141500Y86023I-2761J2761D01*
G01*
X146904Y86075D02*
G03*
X146904Y80552I2761J-2761D01*
G01*
X146901Y80383D02*
G03*
X141500Y80500I-2761J-2761D01*
G01*
X81381Y86075D02*
G03*
X86904Y86075I2761J2761D01*
G01*
X81500Y80500D02*
G03*
X81500Y86023I-2761J2761D01*
G01*
X86904Y86075D02*
G03*
X86904Y80552I2761J-2761D01*
G01*
X86901Y80383D02*
G03*
X81500Y80500I-2761J-2761D01*
G01*
X65381Y86075D02*
G03*
X70904Y86075I2761J2761D01*
G01*
X65500Y80500D02*
G03*
X65500Y86023I-2761J2761D01*
G01*
X70904Y86075D02*
G03*
X70904Y80552I2761J-2761D01*
G01*
X70901Y80383D02*
G03*
X65500Y80500I-2761J-2761D01*
G01*
X5381Y86075D02*
G03*
X10904Y86075I2761J2761D01*
G01*
X5500Y80500D02*
G03*
X5500Y86023I-2761J2761D01*
G01*
X10904Y86075D02*
G03*
X10904Y80552I2761J-2761D01*
G01*
X10901Y80383D02*
G03*
X5500Y80500I-2761J-2761D01*
G01*
X171500Y82500D02*
G03*
X170000Y84000I-1500J0D01*
G01*
X173000D02*
G03*
X171500Y82500I0J-1500D01*
G01*
Y85500D02*
G03*
X173000Y84000I1500J0D01*
G01*
X170202Y84014D02*
G03*
X171500Y85500I-202J1486D01*
G01*
X183500Y82500D02*
G03*
X182000Y84000I-1500J0D01*
G01*
X185000D02*
G03*
X183500Y82500I0J-1500D01*
G01*
Y85500D02*
G03*
X185000Y84000I1500J0D01*
G01*
X182202Y84014D02*
G03*
X183500Y85500I-202J1486D01*
G01*
X195500Y82500D02*
G03*
X194000Y84000I-1500J0D01*
G01*
X197000D02*
G03*
X195500Y82500I0J-1500D01*
G01*
Y85500D02*
G03*
X197000Y84000I1500J0D01*
G01*
X194202Y84014D02*
G03*
X195500Y85500I-202J1486D01*
G01*
X207500Y82500D02*
G03*
X206000Y84000I-1500J0D01*
G01*
X209000D02*
G03*
X207500Y82500I0J-1500D01*
G01*
Y85500D02*
G03*
X209000Y84000I1500J0D01*
G01*
X206202Y84014D02*
G03*
X207500Y85500I-202J1486D01*
G01*
X95500Y82500D02*
G03*
X94000Y84000I-1500J0D01*
G01*
X97000D02*
G03*
X95500Y82500I0J-1500D01*
G01*
Y85500D02*
G03*
X97000Y84000I1500J0D01*
G01*
X94202Y84014D02*
G03*
X95500Y85500I-202J1486D01*
G01*
X107500Y82500D02*
G03*
X106000Y84000I-1500J0D01*
G01*
X109000D02*
G03*
X107500Y82500I0J-1500D01*
G01*
Y85500D02*
G03*
X109000Y84000I1500J0D01*
G01*
X106202Y84014D02*
G03*
X107500Y85500I-202J1486D01*
G01*
X119500Y82500D02*
G03*
X118000Y84000I-1500J0D01*
G01*
X121000D02*
G03*
X119500Y82500I0J-1500D01*
G01*
Y85500D02*
G03*
X121000Y84000I1500J0D01*
G01*
X118202Y84014D02*
G03*
X119500Y85500I-202J1486D01*
G01*
X131500Y82500D02*
G03*
X130000Y84000I-1500J0D01*
G01*
X133000D02*
G03*
X131500Y82500I0J-1500D01*
G01*
Y85500D02*
G03*
X133000Y84000I1500J0D01*
G01*
X130202Y84014D02*
G03*
X131500Y85500I-202J1486D01*
G01*
X18500Y82500D02*
G03*
X17000Y84000I-1500J0D01*
G01*
X20000D02*
G03*
X18500Y82500I0J-1500D01*
G01*
Y85500D02*
G03*
X20000Y84000I1500J0D01*
G01*
X17202Y84014D02*
G03*
X18500Y85500I-202J1486D01*
G01*
X30500Y82500D02*
G03*
X29000Y84000I-1500J0D01*
G01*
X32000D02*
G03*
X30500Y82500I0J-1500D01*
G01*
Y85500D02*
G03*
X32000Y84000I1500J0D01*
G01*
X29202Y84014D02*
G03*
X30500Y85500I-202J1486D01*
G01*
X42500Y82500D02*
G03*
X41000Y84000I-1500J0D01*
G01*
X44000D02*
G03*
X42500Y82500I0J-1500D01*
G01*
Y85500D02*
G03*
X44000Y84000I1500J0D01*
G01*
X41202Y84014D02*
G03*
X42500Y85500I-202J1486D01*
G01*
X54500Y82500D02*
G03*
X53000Y84000I-1500J0D01*
G01*
X56000D02*
G03*
X54500Y82500I0J-1500D01*
G01*
Y85500D02*
G03*
X56000Y84000I1500J0D01*
G01*
X53202Y84014D02*
G03*
X54500Y85500I-202J1486D01*
G01*
X226702Y83514D02*
G03*
X228000Y85000I-202J1486D01*
G01*
D02*
G03*
X229500Y83500I1500J0D01*
G01*
D02*
G03*
X228000Y82000I0J-1500D01*
G01*
D02*
G03*
X226500Y83500I-1500J0D01*
G01*
X150702Y83514D02*
G03*
X152000Y85000I-202J1486D01*
G01*
D02*
G03*
X153500Y83500I1500J0D01*
G01*
D02*
G03*
X152000Y82000I0J-1500D01*
G01*
D02*
G03*
X150500Y83500I-1500J0D01*
G01*
X74702Y83514D02*
G03*
X76000Y85000I-202J1486D01*
G01*
D02*
G03*
X77500Y83500I1500J0D01*
G01*
D02*
G03*
X76000Y82000I0J-1500D01*
G01*
D02*
G03*
X74500Y83500I-1500J0D01*
G01*
X293674Y146368D02*
G03*
X299197Y146368I2761J2761D01*
G01*
X293793Y140793D02*
G03*
X293793Y146316I-2761J2761D01*
G01*
X299197Y146368D02*
G03*
X299197Y140845I2761J-2761D01*
G01*
X299194Y140676D02*
G03*
X293793Y140793I-2761J-2761D01*
G01*
X238204Y140758D02*
G03*
X232804Y140875I-2761J-2761D01*
G01*
X238207Y146450D02*
G03*
X238207Y140927I2761J-2761D01*
G01*
X232804Y140875D02*
G03*
X232804Y146397I-2761J2761D01*
G01*
X232684Y146450D02*
G03*
X238207Y146450I2761J2761D01*
G01*
X281202Y144014D02*
G03*
X282500Y145500I-202J1486D01*
G01*
D02*
G03*
X284000Y144000I1500J0D01*
G01*
D02*
G03*
X282500Y142500I0J-1500D01*
G01*
D02*
G03*
X281000Y144000I-1500J0D01*
G01*
X269202Y144014D02*
G03*
X270500Y145500I-202J1486D01*
G01*
D02*
G03*
X272000Y144000I1500J0D01*
G01*
D02*
G03*
X270500Y142500I0J-1500D01*
G01*
D02*
G03*
X269000Y144000I-1500J0D01*
G01*
X257202Y144014D02*
G03*
X258500Y145500I-202J1486D01*
G01*
D02*
G03*
X260000Y144000I1500J0D01*
G01*
D02*
G03*
X258500Y142500I0J-1500D01*
G01*
D02*
G03*
X257000Y144000I-1500J0D01*
G01*
X245202Y144014D02*
G03*
X246500Y145500I-202J1486D01*
G01*
D02*
G03*
X248000Y144000I1500J0D01*
G01*
D02*
G03*
X246500Y142500I0J-1500D01*
G01*
D02*
G03*
X245000Y144000I-1500J0D01*
G01*
X217381Y146075D02*
G03*
X222904Y146075I2761J2761D01*
G01*
X217500Y140500D02*
G03*
X217500Y146023I-2761J2761D01*
G01*
X222904Y146075D02*
G03*
X222904Y140552I2761J-2761D01*
G01*
X222901Y140383D02*
G03*
X217500Y140500I-2761J-2761D01*
G01*
X157381Y146075D02*
G03*
X162904Y146075I2761J2761D01*
G01*
X157500Y140500D02*
G03*
X157500Y146023I-2761J2761D01*
G01*
X162904Y146075D02*
G03*
X162904Y140552I2761J-2761D01*
G01*
X162901Y140383D02*
G03*
X157500Y140500I-2761J-2761D01*
G01*
X141381Y146075D02*
G03*
X146904Y146075I2761J2761D01*
G01*
X141500Y140500D02*
G03*
X141500Y146023I-2761J2761D01*
G01*
X146904Y146075D02*
G03*
X146904Y140552I2761J-2761D01*
G01*
X146901Y140383D02*
G03*
X141500Y140500I-2761J-2761D01*
G01*
X81381Y146075D02*
G03*
X86904Y146075I2761J2761D01*
G01*
X81500Y140500D02*
G03*
X81500Y146023I-2761J2761D01*
G01*
X86904Y146075D02*
G03*
X86904Y140552I2761J-2761D01*
G01*
X86901Y140383D02*
G03*
X81500Y140500I-2761J-2761D01*
G01*
X65381Y146075D02*
G03*
X70904Y146075I2761J2761D01*
G01*
X65500Y140500D02*
G03*
X65500Y146023I-2761J2761D01*
G01*
X70904Y146075D02*
G03*
X70904Y140552I2761J-2761D01*
G01*
X70901Y140383D02*
G03*
X65500Y140500I-2761J-2761D01*
G01*
X5381Y146075D02*
G03*
X10904Y146075I2761J2761D01*
G01*
X5500Y140500D02*
G03*
X5500Y146023I-2761J2761D01*
G01*
X10904Y146075D02*
G03*
X10904Y140552I2761J-2761D01*
G01*
X10901Y140383D02*
G03*
X5500Y140500I-2761J-2761D01*
G01*
X171500Y142500D02*
G03*
X170000Y144000I-1500J0D01*
G01*
X173000D02*
G03*
X171500Y142500I0J-1500D01*
G01*
Y145500D02*
G03*
X173000Y144000I1500J0D01*
G01*
X170202Y144014D02*
G03*
X171500Y145500I-202J1486D01*
G01*
X183500Y142500D02*
G03*
X182000Y144000I-1500J0D01*
G01*
X185000D02*
G03*
X183500Y142500I0J-1500D01*
G01*
Y145500D02*
G03*
X185000Y144000I1500J0D01*
G01*
X182202Y144014D02*
G03*
X183500Y145500I-202J1486D01*
G01*
X195500Y142500D02*
G03*
X194000Y144000I-1500J0D01*
G01*
X197000D02*
G03*
X195500Y142500I0J-1500D01*
G01*
Y145500D02*
G03*
X197000Y144000I1500J0D01*
G01*
X194202Y144014D02*
G03*
X195500Y145500I-202J1486D01*
G01*
X207500Y142500D02*
G03*
X206000Y144000I-1500J0D01*
G01*
X209000D02*
G03*
X207500Y142500I0J-1500D01*
G01*
Y145500D02*
G03*
X209000Y144000I1500J0D01*
G01*
X206202Y144014D02*
G03*
X207500Y145500I-202J1486D01*
G01*
X95500Y142500D02*
G03*
X94000Y144000I-1500J0D01*
G01*
X97000D02*
G03*
X95500Y142500I0J-1500D01*
G01*
Y145500D02*
G03*
X97000Y144000I1500J0D01*
G01*
X94202Y144014D02*
G03*
X95500Y145500I-202J1486D01*
G01*
X107500Y142500D02*
G03*
X106000Y144000I-1500J0D01*
G01*
X109000D02*
G03*
X107500Y142500I0J-1500D01*
G01*
Y145500D02*
G03*
X109000Y144000I1500J0D01*
G01*
X106202Y144014D02*
G03*
X107500Y145500I-202J1486D01*
G01*
X119500Y142500D02*
G03*
X118000Y144000I-1500J0D01*
G01*
X121000D02*
G03*
X119500Y142500I0J-1500D01*
G01*
Y145500D02*
G03*
X121000Y144000I1500J0D01*
G01*
X118202Y144014D02*
G03*
X119500Y145500I-202J1486D01*
G01*
X131500Y142500D02*
G03*
X130000Y144000I-1500J0D01*
G01*
X133000D02*
G03*
X131500Y142500I0J-1500D01*
G01*
Y145500D02*
G03*
X133000Y144000I1500J0D01*
G01*
X130202Y144014D02*
G03*
X131500Y145500I-202J1486D01*
G01*
X18500Y142500D02*
G03*
X17000Y144000I-1500J0D01*
G01*
X20000D02*
G03*
X18500Y142500I0J-1500D01*
G01*
Y145500D02*
G03*
X20000Y144000I1500J0D01*
G01*
X17202Y144014D02*
G03*
X18500Y145500I-202J1486D01*
G01*
X30500Y142500D02*
G03*
X29000Y144000I-1500J0D01*
G01*
X32000D02*
G03*
X30500Y142500I0J-1500D01*
G01*
Y145500D02*
G03*
X32000Y144000I1500J0D01*
G01*
X29202Y144014D02*
G03*
X30500Y145500I-202J1486D01*
G01*
X42500Y142500D02*
G03*
X41000Y144000I-1500J0D01*
G01*
X44000D02*
G03*
X42500Y142500I0J-1500D01*
G01*
Y145500D02*
G03*
X44000Y144000I1500J0D01*
G01*
X41202Y144014D02*
G03*
X42500Y145500I-202J1486D01*
G01*
X54500Y142500D02*
G03*
X53000Y144000I-1500J0D01*
G01*
X56000D02*
G03*
X54500Y142500I0J-1500D01*
G01*
Y145500D02*
G03*
X56000Y144000I1500J0D01*
G01*
X53202Y144014D02*
G03*
X54500Y145500I-202J1486D01*
G01*
X226702Y143514D02*
G03*
X228000Y145000I-202J1486D01*
G01*
D02*
G03*
X229500Y143500I1500J0D01*
G01*
D02*
G03*
X228000Y142000I0J-1500D01*
G01*
D02*
G03*
X226500Y143500I-1500J0D01*
G01*
X150702Y143514D02*
G03*
X152000Y145000I-202J1486D01*
G01*
D02*
G03*
X153500Y143500I1500J0D01*
G01*
D02*
G03*
X152000Y142000I0J-1500D01*
G01*
D02*
G03*
X150500Y143500I-1500J0D01*
G01*
X74702Y143514D02*
G03*
X76000Y145000I-202J1486D01*
G01*
D02*
G03*
X77500Y143500I1500J0D01*
G01*
D02*
G03*
X76000Y142000I0J-1500D01*
G01*
D02*
G03*
X74500Y143500I-1500J0D01*
G01*
X293674Y162368D02*
G03*
X299197Y162368I2761J2761D01*
G01*
X293793Y156793D02*
G03*
X293793Y162316I-2761J2761D01*
G01*
X299197Y162368D02*
G03*
X299197Y156845I2761J-2761D01*
G01*
X299194Y156676D02*
G03*
X293793Y156793I-2761J-2761D01*
G01*
X238204Y156758D02*
G03*
X232804Y156875I-2761J-2761D01*
G01*
X238207Y162450D02*
G03*
X238207Y156927I2761J-2761D01*
G01*
X232804Y156875D02*
G03*
X232804Y162398I-2761J2761D01*
G01*
X232684Y162450D02*
G03*
X238207Y162450I2761J2761D01*
G01*
X281202Y160014D02*
G03*
X282500Y161500I-202J1486D01*
G01*
D02*
G03*
X284000Y160000I1500J0D01*
G01*
D02*
G03*
X282500Y158500I0J-1500D01*
G01*
D02*
G03*
X281000Y160000I-1500J0D01*
G01*
X269202Y160014D02*
G03*
X270500Y161500I-202J1486D01*
G01*
D02*
G03*
X272000Y160000I1500J0D01*
G01*
D02*
G03*
X270500Y158500I0J-1500D01*
G01*
D02*
G03*
X269000Y160000I-1500J0D01*
G01*
X257202Y160014D02*
G03*
X258500Y161500I-202J1486D01*
G01*
D02*
G03*
X260000Y160000I1500J0D01*
G01*
D02*
G03*
X258500Y158500I0J-1500D01*
G01*
D02*
G03*
X257000Y160000I-1500J0D01*
G01*
X245202Y160014D02*
G03*
X246500Y161500I-202J1486D01*
G01*
D02*
G03*
X248000Y160000I1500J0D01*
G01*
D02*
G03*
X246500Y158500I0J-1500D01*
G01*
D02*
G03*
X245000Y160000I-1500J0D01*
G01*
X217381Y162075D02*
G03*
X222904Y162075I2761J2761D01*
G01*
X217500Y156500D02*
G03*
X217500Y162023I-2761J2761D01*
G01*
X222904Y162075D02*
G03*
X222904Y156552I2761J-2761D01*
G01*
X222901Y156383D02*
G03*
X217500Y156500I-2761J-2761D01*
G01*
X157381Y162075D02*
G03*
X162904Y162075I2761J2761D01*
G01*
X157500Y156500D02*
G03*
X157500Y162023I-2761J2761D01*
G01*
X162904Y162075D02*
G03*
X162904Y156552I2761J-2761D01*
G01*
X162901Y156383D02*
G03*
X157500Y156500I-2761J-2761D01*
G01*
X141381Y162075D02*
G03*
X146904Y162075I2761J2761D01*
G01*
X141500Y156500D02*
G03*
X141500Y162023I-2761J2761D01*
G01*
X146904Y162075D02*
G03*
X146904Y156552I2761J-2761D01*
G01*
X146901Y156383D02*
G03*
X141500Y156500I-2761J-2761D01*
G01*
X81381Y162075D02*
G03*
X86904Y162075I2761J2761D01*
G01*
X81500Y156500D02*
G03*
X81500Y162023I-2761J2761D01*
G01*
X86904Y162075D02*
G03*
X86904Y156552I2761J-2761D01*
G01*
X86901Y156383D02*
G03*
X81500Y156500I-2761J-2761D01*
G01*
X65381Y162075D02*
G03*
X70904Y162075I2761J2761D01*
G01*
X65500Y156500D02*
G03*
X65500Y162023I-2761J2761D01*
G01*
X70904Y162075D02*
G03*
X70904Y156552I2761J-2761D01*
G01*
X70901Y156383D02*
G03*
X65500Y156500I-2761J-2761D01*
G01*
X5381Y162075D02*
G03*
X10904Y162075I2761J2761D01*
G01*
X5500Y156500D02*
G03*
X5500Y162023I-2761J2761D01*
G01*
X10904Y162075D02*
G03*
X10904Y156552I2761J-2761D01*
G01*
X10901Y156383D02*
G03*
X5500Y156500I-2761J-2761D01*
G01*
X171500Y158500D02*
G03*
X170000Y160000I-1500J0D01*
G01*
X173000D02*
G03*
X171500Y158500I0J-1500D01*
G01*
Y161500D02*
G03*
X173000Y160000I1500J0D01*
G01*
X170202Y160014D02*
G03*
X171500Y161500I-202J1486D01*
G01*
X183500Y158500D02*
G03*
X182000Y160000I-1500J0D01*
G01*
X185000D02*
G03*
X183500Y158500I0J-1500D01*
G01*
Y161500D02*
G03*
X185000Y160000I1500J0D01*
G01*
X182202Y160014D02*
G03*
X183500Y161500I-202J1486D01*
G01*
X195500Y158500D02*
G03*
X194000Y160000I-1500J0D01*
G01*
X197000D02*
G03*
X195500Y158500I0J-1500D01*
G01*
Y161500D02*
G03*
X197000Y160000I1500J0D01*
G01*
X194202Y160014D02*
G03*
X195500Y161500I-202J1486D01*
G01*
X207500Y158500D02*
G03*
X206000Y160000I-1500J0D01*
G01*
X209000D02*
G03*
X207500Y158500I0J-1500D01*
G01*
Y161500D02*
G03*
X209000Y160000I1500J0D01*
G01*
X206202Y160014D02*
G03*
X207500Y161500I-202J1486D01*
G01*
X95500Y158500D02*
G03*
X94000Y160000I-1500J0D01*
G01*
X97000D02*
G03*
X95500Y158500I0J-1500D01*
G01*
Y161500D02*
G03*
X97000Y160000I1500J0D01*
G01*
X94202Y160014D02*
G03*
X95500Y161500I-202J1486D01*
G01*
X107500Y158500D02*
G03*
X106000Y160000I-1500J0D01*
G01*
X109000D02*
G03*
X107500Y158500I0J-1500D01*
G01*
Y161500D02*
G03*
X109000Y160000I1500J0D01*
G01*
X106202Y160014D02*
G03*
X107500Y161500I-202J1486D01*
G01*
X119500Y158500D02*
G03*
X118000Y160000I-1500J0D01*
G01*
X121000D02*
G03*
X119500Y158500I0J-1500D01*
G01*
Y161500D02*
G03*
X121000Y160000I1500J0D01*
G01*
X118202Y160014D02*
G03*
X119500Y161500I-202J1486D01*
G01*
X131500Y158500D02*
G03*
X130000Y160000I-1500J0D01*
G01*
X133000D02*
G03*
X131500Y158500I0J-1500D01*
G01*
Y161500D02*
G03*
X133000Y160000I1500J0D01*
G01*
X130202Y160014D02*
G03*
X131500Y161500I-202J1486D01*
G01*
X18500Y158500D02*
G03*
X17000Y160000I-1500J0D01*
G01*
X20000D02*
G03*
X18500Y158500I0J-1500D01*
G01*
Y161500D02*
G03*
X20000Y160000I1500J0D01*
G01*
X17202Y160014D02*
G03*
X18500Y161500I-202J1486D01*
G01*
X30500Y158500D02*
G03*
X29000Y160000I-1500J0D01*
G01*
X32000D02*
G03*
X30500Y158500I0J-1500D01*
G01*
Y161500D02*
G03*
X32000Y160000I1500J0D01*
G01*
X29202Y160014D02*
G03*
X30500Y161500I-202J1486D01*
G01*
X42500Y158500D02*
G03*
X41000Y160000I-1500J0D01*
G01*
X44000D02*
G03*
X42500Y158500I0J-1500D01*
G01*
Y161500D02*
G03*
X44000Y160000I1500J0D01*
G01*
X41202Y160014D02*
G03*
X42500Y161500I-202J1486D01*
G01*
X54500Y158500D02*
G03*
X53000Y160000I-1500J0D01*
G01*
X56000D02*
G03*
X54500Y158500I0J-1500D01*
G01*
Y161500D02*
G03*
X56000Y160000I1500J0D01*
G01*
X53202Y160014D02*
G03*
X54500Y161500I-202J1486D01*
G01*
X226702Y159514D02*
G03*
X228000Y161000I-202J1486D01*
G01*
D02*
G03*
X229500Y159500I1500J0D01*
G01*
D02*
G03*
X228000Y158000I0J-1500D01*
G01*
D02*
G03*
X226500Y159500I-1500J0D01*
G01*
X150702Y159514D02*
G03*
X152000Y161000I-202J1486D01*
G01*
D02*
G03*
X153500Y159500I1500J0D01*
G01*
D02*
G03*
X152000Y158000I0J-1500D01*
G01*
D02*
G03*
X150500Y159500I-1500J0D01*
G01*
X74702Y159514D02*
G03*
X76000Y161000I-202J1486D01*
G01*
D02*
G03*
X77500Y159500I1500J0D01*
G01*
D02*
G03*
X76000Y158000I0J-1500D01*
G01*
D02*
G03*
X74500Y159500I-1500J0D01*
G01*
X293674Y222368D02*
G03*
X299197Y222368I2761J2761D01*
G01*
X293793Y216793D02*
G03*
X293793Y222316I-2761J2761D01*
G01*
X299197Y222368D02*
G03*
X299197Y216845I2761J-2761D01*
G01*
X299194Y216676D02*
G03*
X293793Y216793I-2761J-2761D01*
G01*
X238204Y216758D02*
G03*
X232804Y216875I-2761J-2761D01*
G01*
X238207Y222450D02*
G03*
X238207Y216927I2761J-2761D01*
G01*
X232804Y216875D02*
G03*
X232804Y222397I-2761J2761D01*
G01*
X232684Y222450D02*
G03*
X238207Y222450I2761J2761D01*
G01*
X281202Y220014D02*
G03*
X282500Y221500I-202J1486D01*
G01*
D02*
G03*
X284000Y220000I1500J0D01*
G01*
D02*
G03*
X282500Y218500I0J-1500D01*
G01*
D02*
G03*
X281000Y220000I-1500J0D01*
G01*
X269202Y220014D02*
G03*
X270500Y221500I-202J1486D01*
G01*
D02*
G03*
X272000Y220000I1500J0D01*
G01*
D02*
G03*
X270500Y218500I0J-1500D01*
G01*
D02*
G03*
X269000Y220000I-1500J0D01*
G01*
X257202Y220014D02*
G03*
X258500Y221500I-202J1486D01*
G01*
D02*
G03*
X260000Y220000I1500J0D01*
G01*
D02*
G03*
X258500Y218500I0J-1500D01*
G01*
D02*
G03*
X257000Y220000I-1500J0D01*
G01*
X245202Y220014D02*
G03*
X246500Y221500I-202J1486D01*
G01*
D02*
G03*
X248000Y220000I1500J0D01*
G01*
D02*
G03*
X246500Y218500I0J-1500D01*
G01*
D02*
G03*
X245000Y220000I-1500J0D01*
G01*
X217381Y222075D02*
G03*
X222904Y222075I2761J2761D01*
G01*
X217500Y216500D02*
G03*
X217500Y222023I-2761J2761D01*
G01*
X222904Y222075D02*
G03*
X222904Y216552I2761J-2761D01*
G01*
X222901Y216383D02*
G03*
X217500Y216500I-2761J-2761D01*
G01*
X157381Y222075D02*
G03*
X162904Y222075I2761J2761D01*
G01*
X157500Y216500D02*
G03*
X157500Y222023I-2761J2761D01*
G01*
X162904Y222075D02*
G03*
X162904Y216552I2761J-2761D01*
G01*
X162901Y216383D02*
G03*
X157500Y216500I-2761J-2761D01*
G01*
X141381Y222075D02*
G03*
X146904Y222075I2761J2761D01*
G01*
X141500Y216500D02*
G03*
X141500Y222023I-2761J2761D01*
G01*
X146904Y222075D02*
G03*
X146904Y216552I2761J-2761D01*
G01*
X146901Y216383D02*
G03*
X141500Y216500I-2761J-2761D01*
G01*
X81381Y222075D02*
G03*
X86904Y222075I2761J2761D01*
G01*
X81500Y216500D02*
G03*
X81500Y222023I-2761J2761D01*
G01*
X86904Y222075D02*
G03*
X86904Y216552I2761J-2761D01*
G01*
X86901Y216383D02*
G03*
X81500Y216500I-2761J-2761D01*
G01*
X65381Y222075D02*
G03*
X70904Y222075I2761J2761D01*
G01*
X65500Y216500D02*
G03*
X65500Y222023I-2761J2761D01*
G01*
X70904Y222075D02*
G03*
X70904Y216552I2761J-2761D01*
G01*
X70901Y216383D02*
G03*
X65500Y216500I-2761J-2761D01*
G01*
X5381Y222075D02*
G03*
X10904Y222075I2761J2761D01*
G01*
X5500Y216500D02*
G03*
X5500Y222023I-2761J2761D01*
G01*
X10904Y222075D02*
G03*
X10904Y216552I2761J-2761D01*
G01*
X10901Y216383D02*
G03*
X5500Y216500I-2761J-2761D01*
G01*
X171500Y218500D02*
G03*
X170000Y220000I-1500J0D01*
G01*
X173000D02*
G03*
X171500Y218500I0J-1500D01*
G01*
Y221500D02*
G03*
X173000Y220000I1500J0D01*
G01*
X170202Y220014D02*
G03*
X171500Y221500I-202J1486D01*
G01*
X183500Y218500D02*
G03*
X182000Y220000I-1500J0D01*
G01*
X185000D02*
G03*
X183500Y218500I0J-1500D01*
G01*
Y221500D02*
G03*
X185000Y220000I1500J0D01*
G01*
X182202Y220014D02*
G03*
X183500Y221500I-202J1486D01*
G01*
X195500Y218500D02*
G03*
X194000Y220000I-1500J0D01*
G01*
X197000D02*
G03*
X195500Y218500I0J-1500D01*
G01*
Y221500D02*
G03*
X197000Y220000I1500J0D01*
G01*
X194202Y220014D02*
G03*
X195500Y221500I-202J1486D01*
G01*
X207500Y218500D02*
G03*
X206000Y220000I-1500J0D01*
G01*
X209000D02*
G03*
X207500Y218500I0J-1500D01*
G01*
Y221500D02*
G03*
X209000Y220000I1500J0D01*
G01*
X206202Y220014D02*
G03*
X207500Y221500I-202J1486D01*
G01*
X95500Y218500D02*
G03*
X94000Y220000I-1500J0D01*
G01*
X97000D02*
G03*
X95500Y218500I0J-1500D01*
G01*
Y221500D02*
G03*
X97000Y220000I1500J0D01*
G01*
X94202Y220014D02*
G03*
X95500Y221500I-202J1486D01*
G01*
X107500Y218500D02*
G03*
X106000Y220000I-1500J0D01*
G01*
X109000D02*
G03*
X107500Y218500I0J-1500D01*
G01*
Y221500D02*
G03*
X109000Y220000I1500J0D01*
G01*
X106202Y220014D02*
G03*
X107500Y221500I-202J1486D01*
G01*
X119500Y218500D02*
G03*
X118000Y220000I-1500J0D01*
G01*
X121000D02*
G03*
X119500Y218500I0J-1500D01*
G01*
Y221500D02*
G03*
X121000Y220000I1500J0D01*
G01*
X118202Y220014D02*
G03*
X119500Y221500I-202J1486D01*
G01*
X131500Y218500D02*
G03*
X130000Y220000I-1500J0D01*
G01*
X133000D02*
G03*
X131500Y218500I0J-1500D01*
G01*
Y221500D02*
G03*
X133000Y220000I1500J0D01*
G01*
X130202Y220014D02*
G03*
X131500Y221500I-202J1486D01*
G01*
X18500Y218500D02*
G03*
X17000Y220000I-1500J0D01*
G01*
X20000D02*
G03*
X18500Y218500I0J-1500D01*
G01*
Y221500D02*
G03*
X20000Y220000I1500J0D01*
G01*
X17202Y220014D02*
G03*
X18500Y221500I-202J1486D01*
G01*
X30500Y218500D02*
G03*
X29000Y220000I-1500J0D01*
G01*
X32000D02*
G03*
X30500Y218500I0J-1500D01*
G01*
Y221500D02*
G03*
X32000Y220000I1500J0D01*
G01*
X29202Y220014D02*
G03*
X30500Y221500I-202J1486D01*
G01*
X42500Y218500D02*
G03*
X41000Y220000I-1500J0D01*
G01*
X44000D02*
G03*
X42500Y218500I0J-1500D01*
G01*
Y221500D02*
G03*
X44000Y220000I1500J0D01*
G01*
X41202Y220014D02*
G03*
X42500Y221500I-202J1486D01*
G01*
X54500Y218500D02*
G03*
X53000Y220000I-1500J0D01*
G01*
X56000D02*
G03*
X54500Y218500I0J-1500D01*
G01*
Y221500D02*
G03*
X56000Y220000I1500J0D01*
G01*
X53202Y220014D02*
G03*
X54500Y221500I-202J1486D01*
G01*
X226702Y219514D02*
G03*
X228000Y221000I-202J1486D01*
G01*
D02*
G03*
X229500Y219500I1500J0D01*
G01*
D02*
G03*
X228000Y218000I0J-1500D01*
G01*
D02*
G03*
X226500Y219500I-1500J0D01*
G01*
X150702Y219514D02*
G03*
X152000Y221000I-202J1486D01*
G01*
D02*
G03*
X153500Y219500I1500J0D01*
G01*
D02*
G03*
X152000Y218000I0J-1500D01*
G01*
D02*
G03*
X150500Y219500I-1500J0D01*
G01*
X74702Y219514D02*
G03*
X76000Y221000I-202J1486D01*
G01*
D02*
G03*
X77500Y219500I1500J0D01*
G01*
D02*
G03*
X76000Y218000I0J-1500D01*
G01*
D02*
G03*
X74500Y219500I-1500J0D01*
G01*
X75500Y294500D02*
G03*
X74000Y296000I-1500J0D01*
G01*
X77000D02*
G03*
X75500Y294500I0J-1500D01*
G01*
Y297500D02*
G03*
X77000Y296000I1500J0D01*
G01*
X74202Y296014D02*
G03*
X75500Y297500I-202J1486D01*
G01*
X151500Y294500D02*
G03*
X150000Y296000I-1500J0D01*
G01*
X153000D02*
G03*
X151500Y294500I0J-1500D01*
G01*
Y297500D02*
G03*
X153000Y296000I1500J0D01*
G01*
X150202Y296014D02*
G03*
X151500Y297500I-202J1486D01*
G01*
X227500Y294500D02*
G03*
X226000Y296000I-1500J0D01*
G01*
X229000D02*
G03*
X227500Y294500I0J-1500D01*
G01*
Y297500D02*
G03*
X229000Y296000I1500J0D01*
G01*
X226202Y296014D02*
G03*
X227500Y297500I-202J1486D01*
G01*
X52702Y296514D02*
G03*
X54000Y298000I-202J1486D01*
G01*
D02*
G03*
X55500Y296500I1500J0D01*
G01*
D02*
G03*
X54000Y295000I0J-1500D01*
G01*
D02*
G03*
X52500Y296500I-1500J0D01*
G01*
X40702Y296514D02*
G03*
X42000Y298000I-202J1486D01*
G01*
D02*
G03*
X43500Y296500I1500J0D01*
G01*
D02*
G03*
X42000Y295000I0J-1500D01*
G01*
D02*
G03*
X40500Y296500I-1500J0D01*
G01*
X28702Y296514D02*
G03*
X30000Y298000I-202J1486D01*
G01*
D02*
G03*
X31500Y296500I1500J0D01*
G01*
D02*
G03*
X30000Y295000I0J-1500D01*
G01*
D02*
G03*
X28500Y296500I-1500J0D01*
G01*
X16702Y296514D02*
G03*
X18000Y298000I-202J1486D01*
G01*
D02*
G03*
X19500Y296500I1500J0D01*
G01*
D02*
G03*
X18000Y295000I0J-1500D01*
G01*
D02*
G03*
X16500Y296500I-1500J0D01*
G01*
X129702Y296514D02*
G03*
X131000Y298000I-202J1486D01*
G01*
D02*
G03*
X132500Y296500I1500J0D01*
G01*
D02*
G03*
X131000Y295000I0J-1500D01*
G01*
D02*
G03*
X129500Y296500I-1500J0D01*
G01*
X117702Y296514D02*
G03*
X119000Y298000I-202J1486D01*
G01*
D02*
G03*
X120500Y296500I1500J0D01*
G01*
D02*
G03*
X119000Y295000I0J-1500D01*
G01*
D02*
G03*
X117500Y296500I-1500J0D01*
G01*
X105702Y296514D02*
G03*
X107000Y298000I-202J1486D01*
G01*
D02*
G03*
X108500Y296500I1500J0D01*
G01*
D02*
G03*
X107000Y295000I0J-1500D01*
G01*
D02*
G03*
X105500Y296500I-1500J0D01*
G01*
X93702Y296514D02*
G03*
X95000Y298000I-202J1486D01*
G01*
D02*
G03*
X96500Y296500I1500J0D01*
G01*
D02*
G03*
X95000Y295000I0J-1500D01*
G01*
D02*
G03*
X93500Y296500I-1500J0D01*
G01*
X205702Y296514D02*
G03*
X207000Y298000I-202J1486D01*
G01*
D02*
G03*
X208500Y296500I1500J0D01*
G01*
D02*
G03*
X207000Y295000I0J-1500D01*
G01*
D02*
G03*
X205500Y296500I-1500J0D01*
G01*
X193702Y296514D02*
G03*
X195000Y298000I-202J1486D01*
G01*
D02*
G03*
X196500Y296500I1500J0D01*
G01*
D02*
G03*
X195000Y295000I0J-1500D01*
G01*
D02*
G03*
X193500Y296500I-1500J0D01*
G01*
X181702Y296514D02*
G03*
X183000Y298000I-202J1486D01*
G01*
D02*
G03*
X184500Y296500I1500J0D01*
G01*
D02*
G03*
X183000Y295000I0J-1500D01*
G01*
D02*
G03*
X181500Y296500I-1500J0D01*
G01*
X169702Y296514D02*
G03*
X171000Y298000I-202J1486D01*
G01*
D02*
G03*
X172500Y296500I1500J0D01*
G01*
D02*
G03*
X171000Y295000I0J-1500D01*
G01*
D02*
G03*
X169500Y296500I-1500J0D01*
G01*
X10401Y292883D02*
G03*
X5000Y293000I-2761J-2761D01*
G01*
X10404Y298575D02*
G03*
X10404Y293052I2761J-2761D01*
G01*
X5000Y293000D02*
G03*
X5000Y298523I-2761J2761D01*
G01*
X4881Y298575D02*
G03*
X10404Y298575I2761J2761D01*
G01*
X70401Y292883D02*
G03*
X65000Y293000I-2761J-2761D01*
G01*
X70404Y298575D02*
G03*
X70404Y293052I2761J-2761D01*
G01*
X65000Y293000D02*
G03*
X65000Y298523I-2761J2761D01*
G01*
X64881Y298575D02*
G03*
X70404Y298575I2761J2761D01*
G01*
X86401Y292883D02*
G03*
X81000Y293000I-2761J-2761D01*
G01*
X86404Y298575D02*
G03*
X86404Y293052I2761J-2761D01*
G01*
X81000Y293000D02*
G03*
X81000Y298523I-2761J2761D01*
G01*
X80881Y298575D02*
G03*
X86404Y298575I2761J2761D01*
G01*
X146401Y292883D02*
G03*
X141000Y293000I-2761J-2761D01*
G01*
X146404Y298575D02*
G03*
X146404Y293052I2761J-2761D01*
G01*
X141000Y293000D02*
G03*
X141000Y298523I-2761J2761D01*
G01*
X140881Y298575D02*
G03*
X146404Y298575I2761J2761D01*
G01*
X162401Y292883D02*
G03*
X157000Y293000I-2761J-2761D01*
G01*
X162404Y298575D02*
G03*
X162404Y293052I2761J-2761D01*
G01*
X157000Y293000D02*
G03*
X157000Y298523I-2761J2761D01*
G01*
X156881Y298575D02*
G03*
X162404Y298575I2761J2761D01*
G01*
X222401Y292883D02*
G03*
X217000Y293000I-2761J-2761D01*
G01*
X222404Y298575D02*
G03*
X222404Y293052I2761J-2761D01*
G01*
X217000Y293000D02*
G03*
X217000Y298523I-2761J2761D01*
G01*
X216881Y298575D02*
G03*
X222404Y298575I2761J2761D01*
G01*
X246000Y295000D02*
G03*
X244500Y296500I-1500J0D01*
G01*
X247500D02*
G03*
X246000Y295000I0J-1500D01*
G01*
Y298000D02*
G03*
X247500Y296500I1500J0D01*
G01*
X244702Y296514D02*
G03*
X246000Y298000I-202J1486D01*
G01*
X258000Y295000D02*
G03*
X256500Y296500I-1500J0D01*
G01*
X259500D02*
G03*
X258000Y295000I0J-1500D01*
G01*
Y298000D02*
G03*
X259500Y296500I1500J0D01*
G01*
X256702Y296514D02*
G03*
X258000Y298000I-202J1486D01*
G01*
X270000Y295000D02*
G03*
X268500Y296500I-1500J0D01*
G01*
X271500D02*
G03*
X270000Y295000I0J-1500D01*
G01*
Y298000D02*
G03*
X271500Y296500I1500J0D01*
G01*
X268702Y296514D02*
G03*
X270000Y298000I-202J1486D01*
G01*
X282000Y295000D02*
G03*
X280500Y296500I-1500J0D01*
G01*
X283500D02*
G03*
X282000Y295000I0J-1500D01*
G01*
Y298000D02*
G03*
X283500Y296500I1500J0D01*
G01*
X280702Y296514D02*
G03*
X282000Y298000I-202J1486D01*
G01*
X232184Y298950D02*
G03*
X237707Y298950I2761J2761D01*
G01*
X232304Y293375D02*
G03*
X232304Y298897I-2761J2761D01*
G01*
X237707Y298950D02*
G03*
X237707Y293427I2761J-2761D01*
G01*
X237704Y293258D02*
G03*
X232304Y293375I-2761J-2761D01*
G01*
X298694Y293176D02*
G03*
X293293Y293293I-2761J-2761D01*
G01*
X298696Y298868D02*
G03*
X298696Y293345I2761J-2761D01*
G01*
X293293Y293293D02*
G03*
X293293Y298816I-2761J2761D01*
G01*
X293174Y298868D02*
G03*
X298696Y298868I2761J2761D01*
G01*
M02*
