G04*
G04 #@! TF.GenerationSoftware,Altium Limited,Altium Designer,21.0.8 (223)*
G04*
G04 Layer_Physical_Order=2*
G04 Layer_Color=16711680*
%FSLAX25Y25*%
%MOIN*%
G70*
G04*
G04 #@! TF.SameCoordinates,BE5F0130-CAB9-40B4-B503-F0A0EBAF52F2*
G04*
G04*
G04 #@! TF.FilePolarity,Positive*
G04*
G01*
G75*
%ADD12C,0.15000*%
%ADD13C,0.03000*%
D12*
X30500Y31300D02*
D03*
X304500Y31800D02*
D03*
X31500Y418800D02*
D03*
X304500Y419300D02*
D03*
X0Y0D02*
D03*
X336200D02*
D03*
Y450000D02*
D03*
X0D02*
D03*
D13*
X-13950Y434250D02*
X14500Y462700D01*
X-13950Y449250D02*
X-450Y462750D01*
X-13950Y419250D02*
X27500Y460700D01*
X-13950Y254250D02*
X193000Y461200D01*
X-13950Y239250D02*
X208500Y461700D01*
X-13950Y224250D02*
X223000Y461200D01*
X-13950Y209250D02*
X238500Y461700D01*
X-13950Y194250D02*
X254500Y462700D01*
X-13950Y179250D02*
X268550Y461750D01*
X-13950Y164250D02*
X282000Y460200D01*
X-13950Y149250D02*
X298500Y461700D01*
X-13950Y119250D02*
X327500Y460700D01*
X-13950Y104250D02*
X340550Y458750D01*
X-13950Y89250D02*
X348050Y451250D01*
X-13950Y134250D02*
X313500Y461700D01*
X-13950Y74250D02*
X348050Y436250D01*
X-13950Y14250D02*
X348050Y376250D01*
X-13950Y-750D02*
X348050Y361250D01*
X-8700Y-10500D02*
X348050Y346250D01*
X3300Y-13500D02*
X348050Y331250D01*
X18550Y-13250D02*
X348050Y316250D01*
X33550Y-13250D02*
X348050Y301250D01*
X48550Y-13250D02*
X348050Y286250D01*
X65050Y-11750D02*
X348050Y271250D01*
X78300Y-13500D02*
X348050Y256250D01*
X93550Y-13250D02*
X348050Y241250D01*
X108800Y-13000D02*
X348050Y226250D01*
X123550Y-13250D02*
X348050Y211250D01*
X-13950Y59250D02*
X348050Y421250D01*
X-13950Y44250D02*
X348050Y406250D01*
X-13950Y29250D02*
X348050Y391250D01*
X334550Y-12250D02*
X348050Y1250D01*
X-13950Y404250D02*
X41500Y459700D01*
X-13950Y389250D02*
X58000Y461200D01*
X-13950Y374250D02*
X72500Y460700D01*
X-13950Y359250D02*
X88500Y461700D01*
X-13950Y344250D02*
X103500Y461700D01*
X-13950Y329250D02*
X118000Y461200D01*
X-13950Y299250D02*
X148500Y461700D01*
X-13950Y284250D02*
X164000Y462200D01*
X-13950Y269250D02*
X177500Y460700D01*
X-13950Y314250D02*
X133000Y461200D01*
X137550Y-14250D02*
X348050Y196250D01*
X153050Y-13750D02*
X348050Y181250D01*
X167050Y-14750D02*
X348050Y166250D01*
X182300Y-14500D02*
X348050Y151250D01*
X197800Y-14000D02*
X348050Y136250D01*
X214050Y-12750D02*
X348050Y121250D01*
X229300Y-12500D02*
X348050Y106250D01*
X243800Y-13000D02*
X348050Y91250D01*
X259300Y-12500D02*
X348050Y76250D01*
X273800Y-13000D02*
X348050Y61250D01*
X288050Y-13750D02*
X348050Y46250D01*
X318050Y-13750D02*
X348050Y16250D01*
X304800Y-12000D02*
X348050Y31250D01*
X306500Y461700D02*
X347950Y420250D01*
X334450Y463750D02*
X347950Y450250D01*
X319500Y463700D02*
X347950Y435250D01*
X-14050Y2250D02*
X-550Y-11250D01*
X-14050Y17250D02*
X15950Y-12750D01*
X-14050Y32250D02*
X29200Y-11000D01*
X-14050Y47250D02*
X45950Y-12750D01*
X-14050Y62250D02*
X60200Y-12000D01*
X-14050Y77250D02*
X74700Y-11500D01*
X-14050Y92250D02*
X90200Y-12000D01*
X-14050Y107250D02*
X104700Y-11500D01*
X-14050Y122250D02*
X119950Y-11750D01*
X-14050Y137250D02*
X136200Y-13000D01*
X-14050Y152250D02*
X151700Y-13500D01*
X-14050Y167250D02*
X166950Y-13750D01*
X-14050Y182250D02*
X180950Y-12750D01*
X-14050Y197250D02*
X196450Y-13250D01*
X-14050Y212250D02*
X210450Y-12250D01*
X-14050Y227250D02*
X225200Y-12000D01*
X-14050Y242250D02*
X240450Y-12250D01*
X-14050Y257250D02*
X255700Y-12500D01*
X-14050Y272250D02*
X268950Y-10750D01*
X-14050Y287250D02*
X285450Y-12250D01*
X-14050Y302250D02*
X300450Y-12250D01*
X-14050Y317250D02*
X315450Y-12250D01*
X-14050Y332250D02*
X330700Y-12500D01*
X-14050Y347250D02*
X342700Y-9500D01*
X-14050Y362250D02*
X347950Y250D01*
X-14050Y377250D02*
X347950Y15250D01*
X-14050Y392250D02*
X347950Y30250D01*
X-14050Y407250D02*
X347950Y45250D01*
X-14050Y422250D02*
X347950Y60250D01*
X-14050Y437250D02*
X347950Y75250D01*
X-14050Y452250D02*
X347950Y90250D01*
X-6550Y459750D02*
X347950Y105250D01*
X6500Y461700D02*
X347950Y120250D01*
X20500Y462700D02*
X347950Y135250D01*
X35500Y462700D02*
X347950Y150250D01*
X52000Y461200D02*
X347950Y165250D01*
X65450Y462750D02*
X347950Y180250D01*
X79500Y463700D02*
X347950Y195250D01*
X95500Y462700D02*
X347950Y210250D01*
X111000Y462200D02*
X347950Y225250D01*
X125500Y462700D02*
X347950Y240250D01*
X141000Y462200D02*
X347950Y255250D01*
X156500Y461700D02*
X347950Y270250D01*
X170000Y463200D02*
X347950Y285250D01*
X185500Y462700D02*
X347950Y300250D01*
X201000Y462200D02*
X347950Y315250D01*
X216000Y462200D02*
X347950Y330250D01*
X230500Y462700D02*
X347950Y345250D01*
X245500Y462700D02*
X347950Y360250D01*
X261500Y461700D02*
X347950Y375250D01*
X276000Y462200D02*
X347950Y390250D01*
X292500Y460700D02*
X347950Y405250D01*
M02*
